<svg width="25" height="30" viewBox="0 0 25 30" fill="none" xmlns="http://www.w3.org/2000/svg">
<path fill-rule="evenodd" clip-rule="evenodd" d="M12.066 0.0534962C11.7966 0.135395 11.3746 0.57252 11.2978 0.849251C11.2632 0.973507 11.2349 1.41263 11.2347 1.82499C11.2344 2.37582 11.2149 2.57974 11.161 2.59318C11.1207 2.60327 10.7577 2.69174 10.3544 2.78989C8.74609 3.18113 7.47942 3.90837 6.24507 5.14928C5.04628 6.35447 4.2778 7.78641 3.8977 9.52318C3.77966 10.0624 3.7657 10.3422 3.72504 12.9845C3.68474 15.6033 3.66966 15.9098 3.55567 16.4282C3.1622 18.2172 2.38222 19.5822 0.964131 20.9632C0.171193 21.7353 0.000414125 22.0681 3.45783e-06 22.8417C-0.000289876 23.3214 0.0177206 23.4075 0.191785 23.7612C0.429737 24.2445 0.893262 24.685 1.36389 24.875L1.70104 25.0112L12.261 25.0287C19.9654 25.0414 22.9162 25.0281 23.173 24.9794C24.1022 24.8035 24.7658 24.1457 24.9593 23.2088C25.0392 22.8223 24.9997 22.4553 24.8281 21.9898C24.7292 21.7214 24.5888 21.547 23.9936 20.9528C22.6965 19.6581 22.0186 18.569 21.5911 17.0929C21.302 16.0947 21.267 15.6839 21.2656 13.2778C21.2637 9.87078 21.1332 9.05138 20.3315 7.41118C19.3866 5.47782 17.7799 3.97043 15.8048 3.16441C15.2466 2.93661 14.1543 2.62984 13.9014 2.62984C13.772 2.62984 13.7695 2.61565 13.7485 1.76451C13.7284 0.943646 13.7189 0.88492 13.5646 0.622094C13.276 0.130526 12.6251 -0.116402 12.066 0.0534962ZM7.89038 26.2957C7.89038 26.3951 8.16734 27.1809 8.28538 27.4165C8.8643 28.5717 9.99264 29.4975 11.2637 29.8602C11.8733 30.0341 13.0503 30.0482 13.6397 29.8887C14.5672 29.6377 15.5199 29.0276 16.1052 28.3097C16.4297 27.9118 16.8697 27.0687 17.0076 26.5805L17.0947 26.2725H12.4925C9.96137 26.2725 7.89038 26.283 7.89038 26.2957Z" fill="white"/>
</svg>
