<svg xmlns="http://www.w3.org/2000/svg" xmlns:xlink="http://www.w3.org/1999/xlink" width="449.114" height="449.522" viewBox="0 0 449.114 449.522"><defs><style>.a{fill:none;}.b{fill:rgba(159,134,239,0.36);opacity:0.25;}.c,.e,.f{fill:#a2a4a6;}.c{opacity:0.46;}.d,.s{fill:#d1d3d4;}.d{opacity:0.65;}.f{opacity:0.594;}.g{fill:#f9870b;}.h{fill:#fff;}.i{fill:#6d29ef;}.j{fill:#fb5607;}.k{fill:#d03e13;}.l{fill:#d37208;}.m{fill:#f8c79f;}.n{fill:#d9a275;}.o{fill:#853831;}.p{fill:#fbca00;}.q{fill:#ebb605;}.r{fill:#bcbec0;}.t{fill:#b38f34;}.u{fill:#5721bf;}.v{fill:#2b4880;}.w{fill:#404040;}.x{fill:#d07008;}.y{fill:#203661;}.z{fill:#003395;}.aa{fill:#b3b4b5;}.ab{clip-path:url(#a);}.ac{fill:#7bb728;}</style><clipPath id="a"><path class="a" d="M149.325,125.295a13.454,13.454,0,1,0,11.2,15.383A13.47,13.47,0,0,0,149.325,125.295Z" transform="translate(-133.776 -125.13)"/></clipPath></defs><g transform="translate(21.837 39.076)"><path class="b" d="M109.387,438.048c7.382-15.628-3.363-33.739-15.488-46.056s-26.961-24.224-29.864-41.261c-2.61-15.321,5.391-30.382,14.43-43.023s19.662-24.842,23.52-39.9c7.792-30.393-13.968-59.709-21.064-90.272A98.2,98.2,0,0,1,158.969,58.725c43.909-8,88.808,14.288,133,8.018,29.063-4.124,55.313-20.307,84.322-24.791,34.587-5.346,71.474,7.521,95.232,33.218s33.7,63.477,25.661,97.539c-5.727,24.276-19.628,45.66-30.8,67.962s-19.874,47.632-14.138,71.906c6.689,28.309,31.351,48.831,42.594,75.66,12.2,29.109,6.465,64.91-14.21,88.755l-374.92.609C105.891,465.865,104.375,448.662,109.387,438.048Z" transform="translate(-85.37 -79.833)"/><path class="c" d="M467.215,427.864H350.494a3.284,3.284,0,0,0,0,6.569H467.215a3.284,3.284,0,0,0,0-6.569Z" transform="translate(-43.222 -36.665)"/><path class="d" d="M360.548,440.409h-36.3a3.284,3.284,0,0,0,0,6.569h36.3a3.284,3.284,0,1,0,0-6.569Z" transform="translate(-43.5 -36.532)"/><path class="e" d="M312.882,427.864h-36.3a3.284,3.284,0,0,0,0,6.569h36.3a3.284,3.284,0,1,0,0-6.569Z" transform="translate(-44.004 -36.665)"/><path class="f" d="M178.656,427.864H61.935a3.284,3.284,0,0,0,0,6.569H178.656a3.284,3.284,0,0,0,0-6.569Z" transform="translate(-46.273 -36.665)"/><g transform="translate(0 5.199)"><g transform="translate(305.948 52.073)"><g transform="translate(1.14)"><path class="g" d="M353.516,126.744c2-7.3,4.992-14.5,10.041-20.139s12.4-9.556,19.961-9.146,14.953,5.827,16.383,13.26c1.413,7.34-2.947,14.676-8.5,19.674s-12.349,8.433-18.1,13.209a50.223,50.223,0,0,0-17.269,44.983c-.276-1.9-3-4.723-3.695-6.794a19.153,19.153,0,0,1-1.023-6.572,84.426,84.426,0,0,0-.336-12.861A92.331,92.331,0,0,1,353.516,126.744Z" transform="translate(-350.277 -97.43)"/></g><g transform="translate(0 12.72)"><path class="h" d="M350.367,174.5a1.009,1.009,0,0,1-.282.009,1.043,1.043,0,0,1-.93-1.144,87.516,87.516,0,0,1,38.152-63.171,1.042,1.042,0,0,1,1.154,1.735,85.411,85.411,0,0,0-37.233,61.651A1.043,1.043,0,0,1,350.367,174.5Z" transform="translate(-349.15 -110.016)"/><g transform="translate(21.271 12.338)"><path class="h" d="M390.625,124.3a1.016,1.016,0,0,1-.148.014,97.587,97.587,0,0,0-19,2.41,1.031,1.031,0,0,1-1.249-.783,1.043,1.043,0,0,1,.784-1.248,99.687,99.687,0,0,1,19.411-2.463,1.043,1.043,0,0,1,.205,2.07Z" transform="translate(-370.198 -122.226)"/></g><g transform="translate(13.151 4.59)"><path class="h" d="M365.881,133.587l-.023,0a1.043,1.043,0,0,1-1.183-.879l-2.5-16.959a1.044,1.044,0,0,1,.856-1.179l.023,0a1.043,1.043,0,0,1,1.183.879l2.5,16.958A1.043,1.043,0,0,1,365.881,133.587Z" transform="translate(-362.163 -114.559)"/></g><g transform="translate(10.055 29.198)"><path class="h" d="M373.507,140.979a1.037,1.037,0,0,1-.125.014,71.5,71.5,0,0,0-13,1.846,1.042,1.042,0,1,1-.482-2.027,73.413,73.413,0,0,1,13.379-1.9,1.042,1.042,0,0,1,.226,2.069Z" transform="translate(-359.1 -138.909)"/></g></g></g><g transform="translate(298.326 84.875)"><g transform="translate(2.147)"><path class="i" d="M358.418,163.581c4.414-9.5,10.164-18.619,18.355-25.142s19.126-10.162,29.339-7.854,19.046,11.406,19.277,21.876c.228,10.336-7.415,19.332-16.15,24.864s-18.793,8.643-27.738,13.827A69.474,69.474,0,0,0,347.54,248.5c.062-2.651-3-7.138-3.466-10.121a26.488,26.488,0,0,1,.125-9.2,116.874,116.874,0,0,0,2.518-17.617A127.719,127.719,0,0,1,358.418,163.581Z" transform="translate(-343.732 -129.889)"/></g><g transform="translate(0 18.99)"><path class="h" d="M343.05,227.96a1.469,1.469,0,0,1-.387-.053,1.442,1.442,0,0,1-1-1.776,121.062,121.062,0,0,1,66.648-77.326,1.442,1.442,0,1,1,1.173,2.634A118.149,118.149,0,0,0,344.439,226.9,1.443,1.443,0,0,1,343.05,227.96Z" transform="translate(-341.608 -148.681)"/></g><g transform="translate(40.032 35.124)"><path class="h" d="M409.425,168.868a1.556,1.556,0,0,1-.2-.014,134.963,134.963,0,0,0-26.476-1.11,1.427,1.427,0,0,1-1.522-1.358,1.443,1.443,0,0,1,1.358-1.521A137.98,137.98,0,0,1,409.625,166a1.442,1.442,0,0,1-.2,2.869Z" transform="translate(-381.221 -164.646)"/></g><g transform="translate(30.799 19.573)"><path class="h" d="M373.528,175.848H373.5a1.445,1.445,0,0,1-1.411-1.473l.514-23.707a1.443,1.443,0,0,1,1.441-1.411h.032a1.445,1.445,0,0,1,1.411,1.473l-.514,23.708A1.443,1.443,0,0,1,373.528,175.848Z" transform="translate(-372.085 -149.257)"/></g><g transform="translate(20.965 54.76)"><path class="h" d="M382.218,187.669a1.442,1.442,0,0,1-.174-.01,98.807,98.807,0,0,0-18.155-.489,1.441,1.441,0,1,1-.188-2.876,101.556,101.556,0,0,1,18.687.5,1.442,1.442,0,0,1-.17,2.873Z" transform="translate(-362.353 -184.077)"/></g></g><g transform="translate(13.299 156.456)"><g transform="translate(0 0)"><path class="i" d="M108.633,221.669c-3.949-6.458-8.828-12.538-15.248-16.55s-14.57-5.729-21.716-3.232-12.742,9.757-12.049,17.295c.685,7.443,6.913,13.276,13.642,16.532s14.207,4.664,21.058,7.652a50.225,50.225,0,0,1,29.1,38.4c-.263-1.9,1.57-5.372,1.658-7.553a19.164,19.164,0,0,0-.846-6.6,84.373,84.373,0,0,1-3.255-12.445A92.309,92.309,0,0,0,108.633,221.669Z" transform="translate(-59.562 -200.722)"/></g><g transform="translate(10.702 12.107)"><g transform="translate(0 2.418)"><path class="h" d="M124.879,266.634a1.03,1.03,0,0,0,.274-.07,1.042,1.042,0,0,0,.574-1.357,87.511,87.511,0,0,0-54.218-50.064,1.042,1.042,0,1,0-.627,1.988A85.407,85.407,0,0,1,123.8,265.99,1.041,1.041,0,0,0,124.879,266.634Z" transform="translate(-70.152 -215.095)"/></g><g transform="translate(0.755 12.042)"><path class="h" d="M72.059,229.7a1.054,1.054,0,0,0,.146-.027A97.56,97.56,0,0,1,91.13,226.7a1.032,1.032,0,0,0,.981-1.1,1.043,1.043,0,0,0-1.1-.98,99.624,99.624,0,0,0-19.33,3.035,1.042,1.042,0,0,0,.379,2.044Z" transform="translate(-70.9 -224.618)"/></g><g transform="translate(24.849)"><path class="h" d="M98.218,231.765l.023,0a1.042,1.042,0,0,0,.891-1.173L96.817,213.6a1.042,1.042,0,0,0-1.15-.894l-.023,0a1.044,1.044,0,0,0-.892,1.173l2.316,16.986A1.044,1.044,0,0,0,98.218,231.765Z" transform="translate(-94.742 -212.702)"/></g><g transform="translate(22.001 24.576)"><path class="h" d="M93.082,240.967a1.063,1.063,0,0,0,.124-.021,71.467,71.467,0,0,1,13-1.842,1.042,1.042,0,1,0-.1-2.082,73.427,73.427,0,0,0-13.379,1.9,1.042,1.042,0,0,0,.358,2.049Z" transform="translate(-91.923 -237.021)"/></g></g></g><g transform="translate(0 192.335)"><path class="j" d="M114.473,258.352c-6.88-7.893-14.941-15.058-24.624-19.044s-21.2-4.44-30.366.618S44.363,256.181,47.053,266.3c2.657,9.992,12.5,16.508,22.43,19.391s20.456,3.073,30.49,5.564a69.474,69.474,0,0,1,48.575,45.64c-.8-2.528.9-7.69.513-10.685a26.513,26.513,0,0,0-2.679-8.8,116.934,116.934,0,0,1-7.321-16.221A127.688,127.688,0,0,0,114.473,258.352Z" transform="translate(-46.403 -236.225)"/><g transform="translate(14.476 21.985)"><path class="h" d="M147.069,315.87a1.461,1.461,0,0,0,.358-.159,1.443,1.443,0,0,0,.469-1.985,121.059,121.059,0,0,0-85.529-55.732,1.441,1.441,0,1,0-.394,2.856,118.146,118.146,0,0,1,83.469,54.391A1.442,1.442,0,0,0,147.069,315.87Z" transform="translate(-60.728 -257.98)"/></g><g transform="translate(18.428 30.509)"><path class="h" d="M66.479,277.764a1.5,1.5,0,0,0,.192-.07,135,135,0,0,1,25.123-8.432,1.426,1.426,0,0,0,1.083-1.727,1.442,1.442,0,0,0-1.727-1.083,137.879,137.879,0,0,0-25.661,8.612,1.442,1.442,0,0,0,.99,2.7Z" transform="translate(-64.638 -266.415)"/></g><g transform="translate(47.807 12.937)"><path class="h" d="M102.641,274.483l.03-.01a1.443,1.443,0,0,0,.946-1.807l-7.09-22.629a1.443,1.443,0,0,0-1.776-.954l-.03.009a1.444,1.444,0,0,0-.946,1.808l7.089,22.629A1.444,1.444,0,0,0,102.641,274.483Z" transform="translate(-93.71 -249.027)"/></g><g transform="translate(50.041 44.061)"><path class="h" d="M97.761,288.253a1.657,1.657,0,0,0,.164-.058,98.723,98.723,0,0,1,17.3-5.52,1.442,1.442,0,1,0-.619-2.816A101.679,101.679,0,0,0,96.8,285.541a1.442,1.442,0,0,0,.963,2.712Z" transform="translate(-95.92 -279.826)"/></g></g><g transform="translate(11.044 57.69)"><path class="k" d="M66.572,116.4a10.135,10.135,0,0,0-3.8,10.242c.657,2.811,2.531,5.3,2.739,8.18.267,3.72-2.265,6.978-4.51,9.955S56.562,151.417,57.594,155c1.621,5.629,9.88,6.954,11.9,12.453,1.954,5.333-3.121,11.429-1.008,16.7,1.47,3.666,5.806,5.239,9.73,5.69s8.083.251,11.578,2.089c3.875,2.037,6.678,6.446,11.046,6.75,2.663.185,5.137-1.269,7.369-2.733a143.727,143.727,0,0,0,13.447-9.982c3.329-2.786,6.848-6.7,5.71-10.886-.886-3.264-4.284-5.168-5.956-8.109-2.575-4.528-.535-10.195,1.654-14.922s4.527-10.165,2.432-14.935c-2.521-5.743-10.147-7.428-13.651-12.629-2.325-3.451-2.473-7.907-4.1-11.735a16.011,16.011,0,0,0-28.367-2.172c-1.912,2.937-1.412,3.885-4.83,4.193C71.524,115.044,69.289,114.42,66.572,116.4Z" transform="translate(-57.331 -102.988)"/><rect class="l" width="29.315" height="10.975" transform="translate(53.001 45.95)"/><path class="g" d="M112.988,150.075a3.249,3.249,0,0,0-4.438-1.188L84.324,162.873a3.249,3.249,0,0,0-1.189,4.438l38.844,52.565,16.8-17.135Z" transform="translate(-57.063 -102.507)"/><path class="m" d="M101.926,156.2l-3.074-11.042L90,147.622l3.075,11.042a4.6,4.6,0,0,0,5.661,3.194h0A4.6,4.6,0,0,0,101.926,156.2Z" transform="translate(-56.986 -102.542)"/><path class="n" d="M98.852,145.155,90,147.622l1.164,4.181a20.726,20.726,0,0,0,4.333,1.013,9.308,9.308,0,0,0,5.313-.646Z" transform="translate(-56.986 -102.542)"/><g transform="translate(15.306 9.747)"><path class="m" d="M99.147,115.477l7.374,20.166a10.625,10.625,0,0,1-6.329,13.627h0a15.438,15.438,0,0,1-19.8-9.2L74.67,124.428Z" transform="translate(-72.454 -112.603)"/><path class="o" d="M88.442,132.5a1.487,1.487,0,1,0,.886-1.907A1.487,1.487,0,0,0,88.442,132.5Z" transform="translate(-72.309 -112.444)"/><path class="o" d="M97.919,129.034a1.487,1.487,0,1,0,.885-1.907A1.486,1.486,0,0,0,97.919,129.034Z" transform="translate(-72.209 -112.481)"/><g transform="translate(18.767 27.538)"><path class="o" d="M96.512,143.29a4.117,4.117,0,0,0,1.8-1.278.631.631,0,1,0-.983-.79,3.082,3.082,0,0,1-3.069,1,2.488,2.488,0,0,1-1.973-1.854.63.63,0,1,0-1.225.3,3.754,3.754,0,0,0,2.923,2.787A4.516,4.516,0,0,0,96.512,143.29Z" transform="translate(-91.047 -139.883)"/></g><path class="n" d="M100,134.946c.567.165,1.265.269,1.5.808a1.181,1.181,0,0,1-.508,1.34,2.611,2.611,0,0,1-3-.19,5.524,5.524,0,0,1-1.736-2.66,3.138,3.138,0,0,1-.229-1.666c.08-.381.43-1.058.907-.865.393.159.52.854.683,1.187A3.929,3.929,0,0,0,100,134.946Z" transform="translate(-72.228 -112.432)"/><path class="k" d="M81.309,138.464a20.65,20.65,0,0,0,3.3-16.307,31.448,31.448,0,0,0,20.2,3.11,81.048,81.048,0,0,0-4.455-9.79,5.575,5.575,0,0,0-1.96-2.429c-1.41-.8-3.17-.286-4.7.246l-11.62,4.03c-3.555,1.233-7.49,2.8-8.984,6.258a9.039,9.039,0,0,0-.278,5.723,24.325,24.325,0,0,0,2.249,5.365A10.033,10.033,0,0,0,77.17,137.7,4.924,4.924,0,0,0,81.309,138.464Z" transform="translate(-72.477 -112.633)"/><path class="m" d="M77.516,141.246c1.048,2.865,3.412,4.633,5.28,3.949s2.536-3.559,1.488-6.424-3.412-4.633-5.28-3.95S76.468,138.381,77.516,141.246Z" transform="translate(-72.429 -112.4)"/></g><path class="l" d="M121.907,219.665l6.935-7.071q.508-15.4-.29-30.808l-3.213-6.559a118.1,118.1,0,0,1-14.583,7.625A66.886,66.886,0,0,1,92.4,168.4a12.833,12.833,0,0,0-2.9,7.415Z" transform="translate(-56.991 -102.297)"/></g><g transform="translate(73.284)"><g transform="translate(0 42.291)"><rect class="p" width="236.123" height="334.332" rx="6"/></g><g transform="translate(14.738 57.703)"><path class="q" d="M354.889,232.324,340.152,103,133.5,406.509l8.517,15.412H354.889Z" transform="translate(-133.504 -103.001)"/></g><g transform="translate(14.738 57.703)"><rect class="h" width="206.648" height="303.508"/></g><g transform="translate(64.077)"><g transform="translate(33.64)"><path class="r" d="M235.96,45.9a20.345,20.345,0,0,0-20.345,20.345v35.4H256.3v-35.4A20.345,20.345,0,0,0,235.96,45.9Z" transform="translate(-215.615 -45.902)"/><circle class="h" cx="7.689" cy="7.689" r="7.689" transform="translate(12.655 8.49)"/></g><g transform="translate(33.64 26.913)"><rect class="e" width="40.689" height="9.131"/></g><g transform="translate(0 30.757)"><path class="r" d="M4,0h99.969a4,4,0,0,1,4,4V35.883a0,0,0,0,1,0,0H0a0,0,0,0,1,0,0V4A4,4,0,0,1,4,0Z"/></g><g transform="translate(3.685 34.602)"><path class="s" d="M282.569,80.142H189.977a4,4,0,0,0,0,8.01h92.592a4,4,0,0,0,0-8.01Z" transform="translate(-185.973 -80.142)"/></g><g transform="translate(3.685 55.747)"><path class="e" d="M282.569,101.066H189.977a4,4,0,0,0,0,8.01h92.592a4,4,0,0,0,0-8.01Z" transform="translate(-185.973 -101.066)"/></g></g><g transform="translate(24.35 90.829)"><path class="e" d="M249.7,141.548H145.9a2.884,2.884,0,0,1,0-5.767H249.7a2.884,2.884,0,1,1,0,5.767Z" transform="translate(-143.015 -135.781)"/><g transform="translate(75.93 12.313)"><path class="s" d="M275.34,152.77H220.554a2.4,2.4,0,1,1,0-4.805H275.34a2.4,2.4,0,0,1,0,4.805Z" transform="translate(-218.151 -147.965)"/></g><g transform="translate(0.48 12.313)"><path class="s" d="M200.919,152.77H145.893a2.4,2.4,0,1,1,0-4.805h55.026a2.4,2.4,0,1,1,0,4.805Z" transform="translate(-143.49 -147.965)"/></g><g transform="translate(0.48 23.106)"><path class="s" d="M256.185,163.451H145.893a2.4,2.4,0,1,1,0-4.806H256.185a2.4,2.4,0,0,1,0,4.806Z" transform="translate(-143.49 -158.645)"/></g><g transform="translate(0.48 33.347)"><path class="s" d="M236.722,173.584H145.893a2.4,2.4,0,1,1,0-4.805h90.829a2.4,2.4,0,0,1,0,4.805Z" transform="translate(-143.49 -168.779)"/></g></g><g transform="translate(24.35 160.343)"><g transform="translate(0 0)"><path class="e" d="M249.7,210.334H145.9a2.883,2.883,0,1,1,0-5.766H249.7a2.883,2.883,0,1,1,0,5.766Z" transform="translate(-143.015 -204.568)"/></g><g transform="translate(75.93 12.313)"><path class="s" d="M275.34,221.557H220.554a2.4,2.4,0,1,1,0-4.805H275.34a2.4,2.4,0,0,1,0,4.805Z" transform="translate(-218.151 -216.752)"/></g><g transform="translate(0.48 12.313)"><path class="s" d="M200.919,221.557H145.893a2.4,2.4,0,1,1,0-4.805h55.026a2.4,2.4,0,1,1,0,4.805Z" transform="translate(-143.49 -216.752)"/></g><g transform="translate(0.48 23.106)"><path class="s" d="M256.185,232.238H145.893a2.4,2.4,0,1,1,0-4.806H256.185a2.4,2.4,0,0,1,0,4.806Z" transform="translate(-143.49 -227.432)"/></g><g transform="translate(0.48 33.346)"><path class="s" d="M236.722,242.371H145.893a2.4,2.4,0,0,1,0-4.806h90.829a2.4,2.4,0,0,1,0,4.806Z" transform="translate(-143.49 -237.565)"/></g></g><g transform="translate(24.35 229.858)"><path class="e" d="M249.7,279.121H145.9a2.883,2.883,0,1,1,0-5.766H249.7a2.883,2.883,0,1,1,0,5.766Z" transform="translate(-143.015 -273.355)"/><g transform="translate(75.93 12.312)"><path class="s" d="M275.34,290.343H220.554a2.4,2.4,0,1,1,0-4.805H275.34a2.4,2.4,0,0,1,0,4.805Z" transform="translate(-218.151 -285.538)"/></g><g transform="translate(0.48 12.312)"><path class="s" d="M200.919,290.343H145.893a2.4,2.4,0,1,1,0-4.805h55.026a2.4,2.4,0,1,1,0,4.805Z" transform="translate(-143.49 -285.538)"/></g><g transform="translate(0.48 23.106)"><path class="s" d="M256.185,301.025H145.893a2.4,2.4,0,1,1,0-4.806H256.185a2.4,2.4,0,0,1,0,4.806Z" transform="translate(-143.49 -296.219)"/></g><g transform="translate(0.48 33.346)"><path class="s" d="M236.722,311.158H145.893a2.4,2.4,0,0,1,0-4.806h90.829a2.4,2.4,0,0,1,0,4.806Z" transform="translate(-143.49 -306.352)"/></g></g><g transform="translate(24.35 299.371)"><path class="e" d="M249.7,347.908H145.9a2.884,2.884,0,0,1,0-5.767H249.7a2.884,2.884,0,1,1,0,5.767Z" transform="translate(-143.015 -342.141)"/><g transform="translate(75.93 12.313)"><path class="s" d="M275.34,359.131H220.554a2.4,2.4,0,1,1,0-4.806H275.34a2.4,2.4,0,0,1,0,4.806Z" transform="translate(-218.151 -354.325)"/></g><g transform="translate(0.48 12.313)"><path class="s" d="M200.919,359.131H145.893a2.4,2.4,0,1,1,0-4.806h55.026a2.4,2.4,0,1,1,0,4.806Z" transform="translate(-143.49 -354.325)"/></g><g transform="translate(0.48 23.107)"><path class="s" d="M256.185,369.812H145.893a2.4,2.4,0,1,1,0-4.806H256.185a2.4,2.4,0,0,1,0,4.806Z" transform="translate(-143.49 -365.006)"/></g><g transform="translate(0.48 33.347)"><path class="s" d="M236.722,379.944H145.893a2.4,2.4,0,1,1,0-4.805h90.829a2.4,2.4,0,0,1,0,4.805Z" transform="translate(-143.49 -375.139)"/></g></g><g transform="translate(175.48 88.793)"><path class="s" d="M323.663,167.269h-28.7a2.4,2.4,0,0,1-2.4-2.4v-28.7a2.4,2.4,0,0,1,2.4-2.4h28.7a2.4,2.4,0,0,1,2.4,2.4v28.7A2.4,2.4,0,0,1,323.663,167.269Zm-26.294-4.805H321.26V138.572H297.369Z" transform="translate(-292.564 -133.766)"/></g><g transform="translate(175.48 158.307)"><path class="s" d="M323.663,236.056h-28.7a2.4,2.4,0,0,1-2.4-2.4v-28.7a2.4,2.4,0,0,1,2.4-2.4h28.7a2.4,2.4,0,0,1,2.4,2.4v28.7A2.4,2.4,0,0,1,323.663,236.056Zm-26.294-4.805H321.26V207.359H297.369Z" transform="translate(-292.564 -202.553)"/></g><g transform="translate(175.48 227.821)"><path class="s" d="M323.663,304.843h-28.7a2.4,2.4,0,0,1-2.4-2.4v-28.7a2.4,2.4,0,0,1,2.4-2.4h28.7a2.4,2.4,0,0,1,2.4,2.4v28.7A2.4,2.4,0,0,1,323.663,304.843Zm-26.294-4.805H321.26V276.146H297.369Z" transform="translate(-292.564 -271.34)"/></g><g transform="translate(175.48 297.336)"><path class="s" d="M323.663,373.63h-28.7a2.4,2.4,0,0,1-2.4-2.4v-28.7a2.4,2.4,0,0,1,2.4-2.4h28.7a2.4,2.4,0,0,1,2.4,2.4v28.7A2.4,2.4,0,0,1,323.663,373.63Zm-26.294-4.806H321.26V344.932H297.369Z" transform="translate(-292.564 -340.127)"/></g><g transform="translate(172.046 42.291)"><path class="t" d="M289.167,87.751V112.1l24.349-24.349Z" transform="translate(-289.167 -87.751)"/><g transform="translate(0 15.412)"><path class="s" d="M289.167,103v8.937L298.1,103Z" transform="translate(-289.167 -103.001)"/></g></g><g transform="translate(39.728 42.291)"><path class="t" d="M182.581,87.751V112.1L158.232,87.751Z" transform="translate(-158.232 -87.751)"/><g transform="translate(15.412 15.412)"><path class="s" d="M182.42,103v8.937L173.483,103Z" transform="translate(-173.483 -103.001)"/></g></g></g><g transform="translate(316.797 162.228)"><path class="u" d="M404.5,280.916l-1.1,2.386-.589,1.265c-.236.479-.489,1-.761,1.552-.54,1.116-1.158,2.355-1.857,3.658-.679,1.324-1.462,2.733-2.3,4.216-.821,1.492-1.766,3.02-2.715,4.613-.992,1.569-1.995,3.2-3.093,4.81-1.061,1.631-2.224,3.231-3.358,4.847-1.184,1.581-2.341,3.179-3.56,4.692-1.184,1.539-2.422,2.994-3.6,4.417-1.217,1.392-2.368,2.755-3.524,3.992s-2.228,2.419-3.268,3.467c-1.019,1.066-1.981,2.016-2.844,2.847s-1.6,1.565-2.241,2.142l-1.982,1.833a3.956,3.956,0,0,1-5.56-5.622l.086-.091,1.761-1.85c.567-.581,1.232-1.311,1.987-2.154s1.613-1.786,2.508-2.852c.917-1.046,1.869-2.215,2.867-3.455s2.012-2.58,3.07-3.954c1.019-1.407,2.093-2.841,3.109-4.353,1.051-1.486,2.037-3.051,3.05-4.594.962-1.578,1.952-3.134,2.845-4.716.928-1.56,1.762-3.141,2.593-4.654.785-1.538,1.574-3.009,2.247-4.439.688-1.424,1.331-2.771,1.88-4.036.579-1.261,1.061-2.406,1.472-3.416l.589-1.415.5-1.279.948-2.451a5.89,5.89,0,0,1,10.987,4.249C404.605,280.685,404.552,280.809,404.5,280.916Z" transform="translate(-359.873 -205.734)"/><path class="v" d="M390.317,334.753h34.632l11.669,87.075h-10.54l-15.6-68.837a3.325,3.325,0,0,0-3.243-2.59h0a3.323,3.323,0,0,0-3.321,3.175l-3.058,68.252h-10.54Z" transform="translate(-359.564 -205.077)"/><path class="i" d="M427.072,272.015H401.043a6.332,6.332,0,0,0-6.314,5.848l-4.412,57.553h34.632l8.387-56.133A6.333,6.333,0,0,0,427.072,272.015Z" transform="translate(-359.564 -205.74)"/><path class="m" d="M407.834,262.061l-.541,11.111a5.208,5.208,0,1,0,10.4.505l.541-11.11Z" transform="translate(-359.385 -205.845)"/><path class="n" d="M407.4,270.9a18.254,18.254,0,0,0,5.343-1.5,18.781,18.781,0,0,0,5.337-3.67l.154-3.162-10.4-.505Z" transform="translate(-359.383 -205.845)"/><g transform="translate(33.84 15.818)"><path class="m" d="M399.981,233.736v21.473A10.623,10.623,0,0,0,410.6,265.832h0a15.438,15.438,0,0,0,15.438-15.439V233.736Z" transform="translate(-393.302 -221.963)"/><path class="g" d="M425.547,251.4a16.691,16.691,0,0,1-8.009-11.76l-17.321,0c-9.627,0-6.989-9.652-4.647-13.65a3.031,3.031,0,0,1,1.624-1.53,2.361,2.361,0,0,1,2.641,1.764,6.873,6.873,0,0,1-.168,3.474c1.013-2.413,2.212-4.956,4.3-6.532a2.925,2.925,0,0,1,2.9-.63,2.411,2.411,0,0,1,1.2,2.16,7.1,7.1,0,0,1-.585,2.521,16.755,16.755,0,0,1,6.092-4.736,2.813,2.813,0,0,1,2.594-.124,2.323,2.323,0,0,1,.41,2.936c-.481.968-1.3,1.733-1.8,2.694a25.269,25.269,0,0,1,6.77-.408,8.337,8.337,0,0,1,5.843,2.943,10.043,10.043,0,0,1,1.692,4.921A25.571,25.571,0,0,1,425.547,251.4Z" transform="translate(-393.372 -222.086)"/><path class="m" d="M428.961,250.588c0,3.051-1.613,5.524-3.6,5.524s-3.6-2.473-3.6-5.524,1.613-5.523,3.6-5.523S428.961,247.538,428.961,250.588Z" transform="translate(-393.072 -221.843)"/><path class="o" d="M415.664,246.13a1.487,1.487,0,1,1-1.487-1.487A1.487,1.487,0,0,1,415.664,246.13Z" transform="translate(-393.168 -221.847)"/><path class="o" d="M405.574,246.13a1.487,1.487,0,1,1-1.487-1.487A1.487,1.487,0,0,1,405.574,246.13Z" transform="translate(-393.275 -221.847)"/><g transform="translate(16.192 32.394)"><path class="o" d="M411.834,259.038a4.126,4.126,0,0,1-2.133-.581.631.631,0,1,1,.652-1.08,3.083,3.083,0,0,0,3.226-.116,2.486,2.486,0,0,0,1.216-2.418.63.63,0,1,1,1.253-.14,3.75,3.75,0,0,1-1.788,3.621A4.5,4.5,0,0,1,411.834,259.038Z" transform="translate(-409.395 -254.141)"/></g><path class="n" d="M405.667,252.4c-.476.349-1.1.686-1.134,1.275a1.181,1.181,0,0,0,.937,1.084,2.612,2.612,0,0,0,2.757-1.211,5.521,5.521,0,0,0,.718-3.094,3.145,3.145,0,0,0-.357-1.644c-.206-.33-.768-.846-1.15-.5-.314.284-.2.98-.233,1.35A3.926,3.926,0,0,1,405.667,252.4Z" transform="translate(-393.254 -221.81)"/></g><path class="i" d="M431.864,274.328c.643.611,1.254,1.224,1.8,1.8.573.588,1.108,1.181,1.655,1.776.527.6,1.073,1.192,1.583,1.8s1.04,1.211,1.533,1.833,1.011,1.229,1.488,1.863.974,1.253,1.444,1.892c.942,1.276,1.867,2.566,2.751,3.883.456.649.882,1.318,1.31,1.986s.871,1.327,1.273,2.012l1.223,2.044c.417.675.779,1.385,1.17,2.077s.785,1.382,1.136,2.1l1.078,2.131c.721,1.42,1.345,2.893,2.02,4.338v0l.176.4a5.055,5.055,0,0,1-.568,5.029c-.839,1.131-1.653,2.276-2.509,3.387s-1.7,2.225-2.6,3.3c-.871,1.094-1.772,2.163-2.676,3.226-.446.537-.913,1.056-1.372,1.581s-.914,1.051-1.389,1.562c-1.863,2.071-3.8,4.076-5.774,6.032-.987.98-2,1.939-3.023,2.888l-1.559,1.411c-.535.475-1.042.913-1.646,1.421a3.571,3.571,0,0,1-5-5.068l.128-.148,1.226-1.416,1.241-1.5c.819-1.014,1.629-2.037,2.416-3.082,1.577-2.085,3.1-4.208,4.557-6.381.372-.536.719-1.09,1.078-1.634s.717-1.088,1.058-1.644c.693-1.1,1.381-2.208,2.038-3.331.675-1.111,1.3-2.249,1.942-3.375s1.227-2.282,1.841-3.417l-.392,5.429,0,0c-.6-1.268-1.138-2.562-1.778-3.814l-.95-1.882c-.308-.632-.673-1.236-1.005-1.855-.349-.612-.664-1.241-1.037-1.84l-1.085-1.815c-.356-.609-.757-1.191-1.132-1.789s-.759-1.19-1.165-1.767c-.787-1.172-1.611-2.319-2.449-3.455-.417-.57-.857-1.121-1.284-1.683s-.878-1.1-1.318-1.651-.9-1.079-1.351-1.617-.924-1.049-1.384-1.576c-.469-.506-.937-1.028-1.411-1.513-.482-.508-.933-.956-1.374-1.378l-.065-.062a5.887,5.887,0,0,1,8.125-8.52Z" transform="translate(-359.23 -205.732)"/><path class="m" d="M425.574,330.491c-4.6-.041-6.988,1.109-10.56,4.01-.941.764-1.895,1.92-1.48,3.059a2.519,2.519,0,0,0,2.517,1.327,29.144,29.144,0,0,1,3.026-.248c1.5.124,3.162.705,4.624.358a13.082,13.082,0,0,0,4.067-1.9C428.757,336.453,426.757,330.5,425.574,330.491Z" transform="translate(-359.32 -205.122)"/><g transform="translate(5.1)"><path class="g" d="M364.932,245.024V426.353a6.729,6.729,0,0,0,6.728,6.728h7.568a6.728,6.728,0,0,0,6.727-6.728V245.024Z" transform="translate(-364.932 -206.025)"/><path class="m" d="M364.932,417.747v6.78a6.729,6.729,0,0,0,6.728,6.728h7.568a6.728,6.728,0,0,0,6.727-6.728v-6.78Z" transform="translate(-364.932 -204.199)"/><path class="m" d="M375.444,206.433l-10.512,39h21.024Z" transform="translate(-364.932 -206.433)"/><path class="j" d="M375.37,206.433l-3.4,12.614h6.8Z" transform="translate(-364.858 -206.433)"/><rect class="w" width="21.024" height="6.394" transform="translate(0 207.154)"/><rect class="x" width="5.412" height="168.154" transform="translate(5.101 38.999)"/></g><path class="m" d="M361.512,324.507a6.468,6.468,0,0,0-1.626,3.973c-.024,2.635,2.148,4.865,4.592,5.851a4.4,4.4,0,0,0,4.127-.066,4.333,4.333,0,0,0,1.479-3.544,10.1,10.1,0,0,0-2.477-6.685c-.551-.639-1.909-2.233-2.818-2.25C363.794,321.769,362.093,323.805,361.512,324.507Z" transform="translate(-359.886 -205.214)"/><path class="g" d="M425.7,420.917v10.3h18.1v-5.153s-6.3-1.519-7.556-5.152Z" transform="translate(-359.19 -204.165)"/><path class="g" d="M401.044,420.917v10.3H372.657v-3.55s14.771.562,17.847-6.755Z" transform="translate(-359.751 -204.165)"/></g><g transform="translate(26.481 243.063)"><rect class="y" width="52.645" height="15.446" transform="translate(21.219 115.329)"/><path class="g" d="M166.209,365.931l-1.251-2.731c-.405-.932-.885-1.752-1.35-2.6-.475-.829-.919-1.716-1.436-2.473l-1.515-2.342c-.519-.754-1.061-1.465-1.593-2.2s-1.08-1.43-1.641-2.1-1.1-1.385-1.684-2.013l-1.728-1.919c-1.176-1.221-2.351-2.451-3.569-3.575-.6-.578-1.21-1.147-1.83-1.685s-1.229-1.1-1.86-1.617c-1.252-1.056-2.519-2.072-3.819-3.045-.646-.491-1.307-.968-1.973-1.439l-1.019-.7-1.084-.713c-3.278-2.158-7.347-.624-9.1,3.423s-.508,9.074,2.77,11.233l.193.127.766.5.81.56c.547.388,1.092.78,1.637,1.2,1.089.816,2.167,1.68,3.223,2.57.537.434,1.046.906,1.566,1.362s1.03.928,1.53,1.409c1.023.939,1.977,1.948,2.941,2.943l1.389,1.543c.473.506.88,1.061,1.326,1.588s.875,1.063,1.265,1.623.82,1.1,1.206,1.655l1.1,1.7a10.5,10.5,0,0,1,.654,1.1q-.421.634-.88,1.26c-.466.631-.89,1.286-1.4,1.9l-1.486,1.874-1.572,1.829c-.516.62-1.072,1.206-1.621,1.8s-1.089,1.2-1.665,1.773q-1.687,1.757-3.455,3.444c-.58.574-1.185,1.114-1.779,1.672s-1.2,1.1-1.8,1.643c-1.209,1.09-2.441,2.151-3.682,3.189l-1.869,1.542-1.848,1.463-.161.126a5.805,5.805,0,0,0-1.524,6.415c.95,2.561,3.4,3.686,5.477,2.512l2.223-1.257,2.157-1.281c1.431-.866,2.852-1.753,4.261-2.683.705-.461,1.412-.921,2.11-1.406s1.406-.947,2.1-1.451q2.09-1.476,4.153-3.067c.693-.512,1.369-1.079,2.053-1.628s1.369-1.1,2.04-1.7l2.024-1.768,2-1.891c.673-.61,1.316-1.334,1.974-2.009s1.311-1.369,1.944-2.148,1.29-1.472,1.907-2.327l1.853-2.564h0l.034-.051A9.275,9.275,0,0,0,166.209,365.931Z" transform="translate(-72.031 -285.921)"/><path class="l" d="M133.425,349.993l.81.56c.547.388,1.092.78,1.637,1.2,1.089.815,2.167,1.68,3.223,2.57.537.434,1.046.906,1.566,1.362s1.03.928,1.53,1.409c1.023.939,1.977,1.948,2.941,2.943l1.389,1.543c.392.419.742.871,1.1,1.313-1.753-10.01-8.859-22.371-8.859-22.371-3.224-.318-4.852,4.616-5.669,9.259Z" transform="translate(-71.967 -285.85)"/><path class="g" d="M73.423,365.931l1.251-2.731c.405-.932.885-1.752,1.35-2.6.475-.829.918-1.716,1.436-2.473l1.515-2.342c.519-.754,1.061-1.465,1.593-2.2s1.08-1.43,1.641-2.1,1.1-1.385,1.684-2.013l1.728-1.919c1.176-1.221,2.351-2.451,3.569-3.575.6-.578,1.21-1.147,1.83-1.685s1.229-1.1,1.86-1.617c1.252-1.056,2.519-2.072,3.82-3.045.645-.491,1.306-.968,1.972-1.439l1.019-.7,1.084-.713c3.278-2.158,7.347-.624,9.1,3.423s.508,9.074-2.77,11.233l-.193.127-.765.5-.811.56c-.547.388-1.092.78-1.637,1.2-1.089.816-2.167,1.68-3.223,2.57-.536.434-1.046.906-1.566,1.362s-1.03.928-1.53,1.409c-1.023.939-1.977,1.948-2.941,2.943l-1.389,1.543c-.473.506-.88,1.061-1.326,1.588s-.875,1.063-1.266,1.623-.819,1.1-1.2,1.655l-1.1,1.7a10.5,10.5,0,0,0-.654,1.1q.421.634.88,1.26c.466.631.89,1.286,1.4,1.9l1.486,1.874,1.572,1.829c.515.62,1.072,1.206,1.621,1.8s1.089,1.2,1.665,1.773q1.687,1.757,3.455,3.444c.58.574,1.185,1.114,1.779,1.672s1.2,1.1,1.8,1.643c1.209,1.09,2.441,2.151,3.682,3.189l1.869,1.542,1.848,1.463.161.126a5.805,5.805,0,0,1,1.524,6.415c-.95,2.561-3.4,3.686-5.477,2.512l-2.223-1.257-2.156-1.281c-1.432-.866-2.853-1.753-4.262-2.683-.705-.461-1.413-.921-2.11-1.406s-1.406-.947-2.1-1.451q-2.09-1.476-4.153-3.067c-.693-.512-1.369-1.079-2.053-1.628s-1.369-1.1-2.04-1.7l-2.024-1.768-2-1.891c-.672-.61-1.315-1.334-1.973-2.009s-1.311-1.369-1.944-2.148-1.289-1.472-1.907-2.327l-1.853-2.564h0l-.034-.051A9.272,9.272,0,0,1,73.423,365.931Z" transform="translate(-72.606 -285.921)"/><path class="l" d="M105.941,349.993l-.811.56c-.547.388-1.092.78-1.637,1.2-1.089.815-2.167,1.68-3.223,2.57-.536.434-1.046.906-1.566,1.362s-1.03.928-1.53,1.409c-1.023.939-1.977,1.948-2.941,2.943l-1.389,1.543c-.392.419-.742.871-1.1,1.313,1.753-10.01,8.859-22.371,8.859-22.371,3.224-.318,4.852,4.616,5.669,9.259Z" transform="translate(-72.404 -285.85)"/><path class="g" d="M135.259,333.74h-31.4a4.423,4.423,0,0,0-4.422,4.422v54.894h40.249V338.162A4.423,4.423,0,0,0,135.259,333.74Z" transform="translate(-72.323 -285.922)"/><path class="m" d="M113.959,325.293v9.739a5.64,5.64,0,1,0,11.279,0v-9.739Z" transform="translate(-72.169 -286.011)"/><path class="n" d="M113.959,329.02A20.628,20.628,0,0,0,116.651,331a20.277,20.277,0,0,0,5.324,2.3,9.963,9.963,0,0,0,3.263.378v-8.385H113.959Z" transform="translate(-72.169 -286.011)"/><g transform="translate(29.704)"><path class="m" d="M134.311,297.3v21.473A10.624,10.624,0,0,1,123.687,329.4h0a15.438,15.438,0,0,1-15.439-15.437V297.3Z" transform="translate(-101.933 -286.307)"/><path class="o" d="M118.385,309.694a1.487,1.487,0,1,0,1.487-1.487A1.486,1.486,0,0,0,118.385,309.694Z" transform="translate(-101.826 -286.192)"/><path class="o" d="M128.475,309.694a1.487,1.487,0,1,0,1.487-1.487A1.486,1.486,0,0,0,128.475,309.694Z" transform="translate(-101.72 -286.192)"/><g transform="translate(16.187 31.613)"><path class="o" d="M122.255,322.6a4.113,4.113,0,0,0,2.132-.581.631.631,0,0,0-.652-1.08,3.081,3.081,0,0,1-3.226-.116,2.485,2.485,0,0,1-1.216-2.418.63.63,0,1,0-1.253-.14,3.755,3.755,0,0,0,1.788,3.622A4.515,4.515,0,0,0,122.255,322.6Z" transform="translate(-118.017 -317.705)"/></g><path class="n" d="M128.4,315.963c.475.35,1.1.687,1.134,1.276a1.183,1.183,0,0,1-.938,1.083,2.608,2.608,0,0,1-2.756-1.211,5.513,5.513,0,0,1-.719-3.094,3.13,3.13,0,0,1,.358-1.643c.206-.331.767-.847,1.149-.5.314.284.2.98.233,1.35A3.928,3.928,0,0,0,128.4,315.963Z" transform="translate(-101.755 -286.154)"/><path class="z" d="M109.532,313.732a9.7,9.7,0,0,0,5.1-8.219c.039,0,.124-.359.165-.359H137.14a35.927,35.927,0,0,0,.11-8.379,12.019,12.019,0,0,0-3.493-7.426c-2.356-2.15-5.7-2.886-8.886-2.926a18.488,18.488,0,0,0-8.755,1.881,12.162,12.162,0,0,0-5.939,6.537c-1.14-1.841-4.111-2.068-5.785-.692s-2.3,3.669-2.385,5.833C101.806,305.257,105.168,310.762,109.532,313.732Z" transform="translate(-101.999 -286.422)"/><path class="m" d="M105.132,314.152c0,3.051,1.614,5.524,3.6,5.524s3.6-2.473,3.6-5.524-1.613-5.523-3.6-5.523S105.132,311.1,105.132,314.152Z" transform="translate(-101.966 -286.187)"/></g><g transform="translate(18.242 67.203)"><path class="s" d="M150.224,360.4a7.48,7.48,0,0,0-7.48-7.48H98.138a7.48,7.48,0,0,0-7.48,7.48l.322,36.845h59.565Z" transform="translate(-90.658 -352.922)"/><path class="h" d="M125.976,373.958a5.786,5.786,0,1,1-5.786-5.786A5.786,5.786,0,0,1,125.976,373.958Z" transform="translate(-90.407 -352.761)"/></g><rect class="s" width="63.196" height="7.449" transform="translate(16.897 111.529)"/><rect class="aa" width="59.616" height="3.724" transform="translate(18.514 107.804)"/><path class="v" d="M157.015,404.763a8.172,8.172,0,0,1-2.653,10.673,8,8,0,0,1-1.962.9l-46.056,15.1-4.51-9.887,44.344-20.226A8.355,8.355,0,0,1,157.015,404.763Z" transform="translate(-72.297 -285.216)"/><path class="y" d="M126.027,410.411l-24.192,11.034,4.509,9.887,39.818-13.051Z" transform="translate(-72.297 -285.111)"/><path class="v" d="M81.891,404.763a8.172,8.172,0,0,0,2.654,10.673,8,8,0,0,0,1.962.9l46.056,15.1,4.509-9.887L92.728,401.324A8.356,8.356,0,0,0,81.891,404.763Z" transform="translate(-72.519 -285.216)"/><path class="j" d="M136.531,421.33h21.145s.28,9.887-10.712,9.887H132.022Z" transform="translate(-71.978 -284.996)"/><path class="j" d="M102.056,421.33H80.911s-.28,9.887,10.712,9.887h14.943Z" transform="translate(-72.519 -284.996)"/></g><path class="g" d="M135.744,171.01a3.318,3.318,0,0,0-4.641.686s-.683.92-1.929,2.5-3.06,3.8-5.343,6.341a83.538,83.538,0,0,1-8.176,8.025,37.637,37.637,0,0,1-4.9,3.534,18.418,18.418,0,0,1-2.475,1.228l-.589.217-.561.165-.014,0c-.41-.461-.9-1.07-1.359-1.69-1.2-1.616-2.355-3.421-3.415-5.19a96.674,96.674,0,0,1-5.233-10.035,34.335,34.335,0,0,1-2.362-6.671c0-.014.01-.028.014-.042a6.735,6.735,0,1,0-12.951-3.7l-.059.208-.128.462c-.058.228-.113.482-.161.759a6.181,6.181,0,0,0-.078.615l-.04.576a12.36,12.36,0,0,0,.138,2.2,18.136,18.136,0,0,0,.466,2.105,46.329,46.329,0,0,0,3.983,9.062,108.715,108.715,0,0,0,6.813,10.795c1.368,1.9,2.828,3.83,4.556,5.8a29.85,29.85,0,0,0,3.071,3.07,14.441,14.441,0,0,0,1.156.878,9.063,9.063,0,0,0,1.954,1.027,6.239,6.239,0,0,0,.857.257c.174.039.349.074.524.1a6.062,6.062,0,0,0,.671.061l.357.005.178,0c-.181.017.461-.032.39-.028l.109-.018.217-.035c.313-.054.488-.067,1.083-.2l.749-.17.371-.092.294-.1c.388-.13.791-.254,1.161-.4l1.085-.456,1.014-.5a28.486,28.486,0,0,0,3.575-2.245,46.935,46.935,0,0,0,5.655-4.984,91.836,91.836,0,0,0,8.1-9.686c2.154-2.935,3.813-5.447,4.954-7.22s1.758-2.808,1.758-2.808l.028-.048A3.318,3.318,0,0,0,135.744,171.01Z" transform="translate(-46.033 -44.68)"/><g transform="translate(85.74 77.508)"><rect class="e" width="2.974" height="3.693" transform="matrix(0.988, 0.156, -0.156, 0.988, 12.202, 30.655)"/><g transform="translate(6.528 33.456)"><path class="r" d="M141.536,155.7l-3.795,24.1a2.871,2.871,0,0,0,2.39,3.284h0a2.873,2.873,0,0,0,3.284-2.391l3.795-24.1Z" transform="translate(-137.706 -155.705)"/></g><path class="r" d="M144.768,154.428A16.011,16.011,0,1,1,163.075,141.1,16.029,16.029,0,0,1,144.768,154.428Z" transform="translate(-131.246 -122.599)"/><path class="h" d="M149.325,125.295a13.454,13.454,0,1,0,11.2,15.383A13.47,13.47,0,0,0,149.325,125.295Z" transform="translate(-131.219 -122.572)"/><g transform="translate(2.557 2.558)"><g class="ab"><g transform="translate(3.971 9.846)"><path class="e" d="M230.361,142.862h-88.49a4.111,4.111,0,0,1-4.147-3.6,4,4,0,0,1,3.976-4.388h88.462a4.129,4.129,0,0,1,4.178,3.629A4,4,0,0,1,230.361,142.862Z" transform="translate(-137.705 -134.873)"/><g transform="translate(50.048 17.056)"><path class="s" d="M266.455,158.409H190.776a3.475,3.475,0,0,1-3.543-3.178,3.329,3.329,0,0,1,3.326-3.479h75.679a3.474,3.474,0,0,1,3.542,3.179A3.328,3.328,0,0,1,266.455,158.409Z" transform="translate(-187.23 -151.751)"/></g><g transform="translate(0.666 17.056)"><path class="s" d="M162.78,158.409h-20.9a3.456,3.456,0,0,1-3.512-3.15,3.329,3.329,0,0,1,3.324-3.508h20.871a3.474,3.474,0,0,1,3.542,3.179A3.328,3.328,0,0,1,162.78,158.409Z" transform="translate(-138.364 -151.751)"/></g><g transform="translate(0.666 32.009)"><path class="s" d="M239.342,173.2H141.881a3.455,3.455,0,0,1-3.512-3.15,3.329,3.329,0,0,1,3.324-3.508h97.432a3.476,3.476,0,0,1,3.543,3.179A3.329,3.329,0,0,1,239.342,173.2Z" transform="translate(-138.364 -166.547)"/></g><g transform="translate(0.666 46.195)"><path class="s" d="M212.379,187.243h-70.5a3.456,3.456,0,0,1-3.512-3.15,3.329,3.329,0,0,1,3.324-3.508h70.469a3.475,3.475,0,0,1,3.543,3.179A3.328,3.328,0,0,1,212.379,187.243Z" transform="translate(-138.364 -180.585)"/></g></g></g></g></g><path class="m" d="M130.583,171.675l4.961,4.576,6.674-.755,5.077-5.363a3.059,3.059,0,0,0-1.371-5.042l-5.244-1.516a3.932,3.932,0,0,0-4.049,1.187Z" transform="translate(-45.513 -44.66)"/></g><path class="ac" d="M308.313,159.733l-8.577-8.577,3-3,5.572,5.572,16.472-16.472,3,3Z" transform="translate(-43.724 -39.737)"/><path class="ac" d="M308.233,229.068l-8.577-8.577,3-3,5.572,5.572,16.472-16.472,3,3Z" transform="translate(-43.725 -39.004)"/><path class="ac" d="M308.149,298.757l-8.577-8.577,3-3,5.572,5.572,16.472-16.472,3,3Z" transform="translate(-43.726 -38.267)"/></g></svg>