<svg id="Group_263" data-name="Group 263" xmlns="http://www.w3.org/2000/svg" xmlns:xlink="http://www.w3.org/1999/xlink" width="121.354" height="121.354" viewBox="0 0 121.354 121.354">
  <defs>
    <clipPath id="clip-path">
      <rect id="Rectangle_107" data-name="Rectangle 107" width="121.354" height="121.354" fill="#5700ff"/>
    </clipPath>
    <filter id="Path_1996" x="-9" y="-6" width="139.353" height="139.354" filterUnits="userSpaceOnUse">
      <feOffset dy="3" input="SourceAlpha"/>
      <feGaussianBlur stdDeviation="3" result="blur"/>
      <feFlood flood-opacity="0.161"/>
      <feComposite operator="in" in2="blur"/>
      <feComposite in="SourceGraphic"/>
    </filter>
  </defs>
  <g id="Group_262" data-name="Group 262" transform="translate(0 0)" clip-path="url(#clip-path)">
    <g transform="matrix(1, 0, 0, 1, 0, 0)" filter="url(#Path_1996)">
      <path id="Path_1996-2" data-name="Path 1996" d="M60.673,121.354A60.677,60.677,0,1,0,0,60.674a60.8,60.8,0,0,0,60.673,60.68" transform="translate(0 0)" fill="#8959e5" fill-rule="evenodd"/>
    </g>
    <path id="Path_1997" data-name="Path 1997" d="M83.31,63.2l4.443,9.948a.338.338,0,0,1-.286.472.493.493,0,0,1,.493.493v.42a.492.492,0,0,1-.493.493H17.807a.491.491,0,0,1-.32-.114l35,35.005a60.686,60.686,0,0,0,60.274-55.911L82.549,23.8a1.738,1.738,0,0,1,.475,1.193V59.8a1.746,1.746,0,0,1-1.74,1.74H24.3a1.752,1.752,0,0,1-1.22-.493l1.365,1.359H82.09a1.309,1.309,0,0,1,1.22.792" transform="translate(8.403 11.435)" fill="#6d2aef" fill-rule="evenodd"/>
    <rect id="Rectangle_106" data-name="Rectangle 106" width="57.276" height="33.938" transform="translate(32.552 36.863)" fill="#676665"/>
    <path id="Path_1998" data-name="Path 1998" d="M41.574,24.754a.418.418,0,1,0-.453-.419.441.441,0,0,0,.453.419" transform="translate(19.759 11.495)" fill="#676665" fill-rule="evenodd"/>
    <path id="Path_1999" data-name="Path 1999" d="M23.183,49.878H82.089a1.309,1.309,0,0,1,1.22.792l4.443,9.948a.322.322,0,0,1-.025.32.317.317,0,0,1-.281.152H17.826a.317.317,0,0,1-.281-.152.326.326,0,0,1-.025-.32l4.443-9.948a1.309,1.309,0,0,1,1.22-.792" transform="translate(8.404 23.967)" fill="#fff" fill-rule="evenodd"/>
    <path id="Path_2000" data-name="Path 2000" d="M17.863,57.451H87.524a.492.492,0,0,1,.493.493v.42a.492.492,0,0,1-.493.493H17.863a.491.491,0,0,1-.493-.493v-.42a.491.491,0,0,1,.493-.493" transform="translate(8.346 27.606)" fill="#ebeae9" fill-rule="evenodd"/>
    <path id="Path_2001" data-name="Path 2001" d="M45.324,24.9,21.987,48.237v10.6h6.75L62.674,24.9Z" transform="translate(10.565 11.964)" fill="gray" fill-rule="evenodd"/>
    <path id="Path_2002" data-name="Path 2002" d="M63.912,24.9,29.974,58.836h45.45V24.9Z" transform="translate(14.403 11.964)" fill="gray" fill-rule="evenodd"/>
    <path id="Path_2003" data-name="Path 2003" d="M22.506,25.606H79.782V59.544H22.506V25.606Zm28.328-1.033a.434.434,0,0,1,.453-.413.419.419,0,1,1,0,.834.435.435,0,0,1-.453-.42m28.808-1.146H22.653a1.745,1.745,0,0,0-1.746,1.74V59.982a1.749,1.749,0,0,0,1.746,1.74H79.642a1.746,1.746,0,0,0,1.74-1.74V25.167a1.741,1.741,0,0,0-1.74-1.74" transform="translate(10.046 11.257)" fill="#fff" fill-rule="evenodd"/>
    <path id="Path_2004" data-name="Path 2004" d="M23.632,50.782h55.5c.446,0,.878.12,1,.4l2.13,5.077a.131.131,0,0,1-.019.161.356.356,0,0,1-.234.071H20.607a.341.341,0,0,1-.225-.071.119.119,0,0,1-.021-.161l2.271-5.077c.126-.28.552-.4,1-.4" transform="translate(9.773 24.402)" fill="#ebeae9" fill-rule="evenodd"/>
    <path id="Path_2005" data-name="Path 2005" d="M37.444,55.305H49.3c.086,0,.192.04.2.133L49.6,57.13a.168.168,0,0,1,0,.055.054.054,0,0,1-.047.025H37.17a.047.047,0,0,1-.047-.025c-.013-.013-.006-.034-.006-.055l.126-1.692c.007-.093.114-.133.2-.133" transform="translate(17.834 26.575)" fill="#ebeae9" fill-rule="evenodd"/>
  </g>
</svg>
