<svg id="Group_2390" data-name="Group 2390" xmlns="http://www.w3.org/2000/svg" xmlns:xlink="http://www.w3.org/1999/xlink" width="50.692" height="57.952" viewBox="0 0 50.692 57.952">
  <defs>
    <clipPath id="clip-path">
      <path id="Path_2211" data-name="Path 2211" d="M181.967,16.025l.34,23.042,17.24,11.55V16.025Z" transform="translate(-181.967 -16.025)" fill="none"/>
    </clipPath>
    <radialGradient id="radial-gradient" cx="0.023" cy="0.16" r="1.004" gradientUnits="objectBoundingBox">
      <stop offset="0" stop-color="#ff6163"/>
      <stop offset="1" stop-color="#8f0000"/>
    </radialGradient>
    <clipPath id="clip-path-2">
      <path id="Path_2212" data-name="Path 2212" d="M194.027,16.025V50.618l31.565-6.858.533-27.735Z" transform="translate(-194.027 -16.025)" fill="none"/>
    </clipPath>
    <radialGradient id="radial-gradient-2" cx="-0.319" cy="-0.577" r="1.79" gradientUnits="objectBoundingBox">
      <stop offset="0" stop-color="#e60e10"/>
      <stop offset="1" stop-color="#730000"/>
    </radialGradient>
    <clipPath id="clip-path-3">
      <path id="Path_2218" data-name="Path 2218" d="M181.736,19.36l17.745,10.068v-9.2l-17.86-9.639Z" transform="translate(-181.621 -10.591)" fill="none"/>
    </clipPath>
    <radialGradient id="radial-gradient-3" cx="0.237" cy="0.04" r="2.042" xlink:href="#radial-gradient"/>
    <clipPath id="clip-path-4">
      <path id="Path_2219" data-name="Path 2219" d="M193.874,19v9.2L226.547,22.2l.159-8.925Z" transform="translate(-193.874 -13.279)" fill="none"/>
    </clipPath>
    <radialGradient id="radial-gradient-4" cx="0.207" cy="-2.123" r="3.333" xlink:href="#radial-gradient-2"/>
    <clipPath id="clip-path-5">
      <path id="Path_2220" data-name="Path 2220" d="M181.621,12.169l17.86,9.639,32.832-5.721L213.048,7.144Z" transform="translate(-181.621 -7.144)" fill="none"/>
    </clipPath>
    <radialGradient id="radial-gradient-5" cx="0.258" cy="1.442" r="5.171" gradientUnits="objectBoundingBox">
      <stop offset="0" stop-color="#f23559"/>
      <stop offset="1" stop-color="#c40000"/>
    </radialGradient>
    <clipPath id="clip-path-6">
      <path id="Path_2225" data-name="Path 2225" d="M203.776,15.883q-.033,4.539-.061,9.08l-.7,23.4,6.54-1.421.77-23.194q.044-4.515.092-9.026Z" transform="translate(-203.015 -14.726)" fill="none"/>
    </clipPath>
    <radialGradient id="radial-gradient-6" cx="-2.828" cy="-0.245" r="1.521" gradientUnits="objectBoundingBox">
      <stop offset="0" stop-color="#fc0"/>
      <stop offset="1" stop-color="#b35100"/>
    </radialGradient>
    <clipPath id="clip-path-7">
      <path id="Path_2226" data-name="Path 2226" d="M185.739,21.684l.634,22.729,5.746,3.851-.548-23.271q-.017-4.526-.036-9.052l-5.87-3.167q.037,4.454.074,8.911" transform="translate(-185.665 -12.773)" fill="none"/>
    </clipPath>
    <radialGradient id="radial-gradient-7" cx="-0.506" cy="-0.343" r="1.315" gradientUnits="objectBoundingBox">
      <stop offset="0" stop-color="#fcf80d"/>
      <stop offset="1" stop-color="#f78a0c"/>
    </radialGradient>
    <clipPath id="clip-path-8">
      <path id="Path_2227" data-name="Path 2227" d="M191.006,9.4c3.354,1.567,6.6,3.06,9.725,4.663,2.959,1.52,5.58,3.188,8.54,4.708l6.641-1.157c-3.488-1.733-7.479-3.23-11.013-4.955-2.739-1.338-5.361-2.807-7.727-4.246Z" transform="translate(-191.006 -8.414)" fill="none"/>
    </clipPath>
    <radialGradient id="radial-gradient-8" cx="0.539" cy="0.407" r="2.694" gradientUnits="objectBoundingBox">
      <stop offset="0" stop-color="#fc9c0d"/>
      <stop offset="1" stop-color="#fcf80d"/>
    </radialGradient>
    <clipPath id="clip-path-9">
      <path id="Path_2229" data-name="Path 2229" d="M204.961,11.58c-6.358,1.05-12.941,1.8-19.3,2.844l5.87,3.167c5.653-.959,10.626-2.3,16.279-3.255,5.127-.869,11.082-1.7,16.06-2.233l-6.329-2.937c-4.271.7-8.314,1.708-12.584,2.414" transform="translate(-185.665 -9.166)" fill="none"/>
    </clipPath>
    <radialGradient id="radial-gradient-9" cx="0.5" cy="0.5" r="1.642" xlink:href="#radial-gradient-8"/>
    <clipPath id="clip-path-10">
      <path id="Path_2238" data-name="Path 2238" d="M197.577,7.731a16.49,16.49,0,0,0,1,6.788l2.509.493c2.073-5.462,4.224-7.976,7.883-12.667a25.5,25.5,0,0,0-6.406,1.831A11.479,11.479,0,0,0,201.036.8a11.2,11.2,0,0,0-3.459,6.934" transform="translate(-197.516 -0.797)" fill="none"/>
    </clipPath>
    <radialGradient id="radial-gradient-10" cx="0.36" cy="0.97" r="2.212" gradientUnits="objectBoundingBox">
      <stop offset="0" stop-color="#f78a0c"/>
      <stop offset="1" stop-color="#fcdc0d"/>
    </radialGradient>
    <clipPath id="clip-path-11">
      <path id="Path_2241" data-name="Path 2241" d="M198.5,0a25.5,25.5,0,0,0-2.9,6,11.444,11.444,0,0,0-3.536-1.112,11.2,11.2,0,0,0,2.872,7.2,16.455,16.455,0,0,0,5.729,3.774l2.038-1.541C200,9.134,199.558,5.854,198.5,0Z" transform="translate(-192.06)" fill="none"/>
    </clipPath>
    <radialGradient id="radial-gradient-11" cx="0.883" cy="0.845" r="1.087" xlink:href="#radial-gradient-10"/>
    <clipPath id="clip-path-12">
      <path id="Path_2244" data-name="Path 2244" d="M191.487,4.233c-2.354.758-6.231,6.5-5.163,9.319a3.4,3.4,0,0,0,1.969,1.761c5.016,2.036,10.642,1.6,15.422.367.227-.857.452-1.713.679-2.568-1.583-2.322-8.552-8.982-12.187-8.982a2.382,2.382,0,0,0-.72.1" transform="translate(-186.142 -4.13)" fill="none"/>
    </clipPath>
    <radialGradient id="radial-gradient-12" cx="0.343" cy="0.185" r="1.095" gradientUnits="objectBoundingBox">
      <stop offset="0" stop-color="#fcdc0d"/>
      <stop offset="1" stop-color="#f78a0c"/>
    </radialGradient>
    <clipPath id="clip-path-13">
      <path id="Path_2245" data-name="Path 2245" d="M199.369,13.074l1.277,2.522c3.673.4,10.7.146,14.992-2.544a1.462,1.462,0,0,0,.738-1.525c-.566-3.22-4.414-7.459-7.259-7.784a1.669,1.669,0,0,0-.194-.012c-2.856,0-8.631,6.621-9.553,9.342" transform="translate(-199.369 -3.732)" fill="none"/>
    </clipPath>
    <radialGradient id="radial-gradient-13" cx="0.842" cy="0.116" r="1.157" xlink:href="#radial-gradient-12"/>
    <clipPath id="clip-path-14">
      <path id="Path_2246" data-name="Path 2246" d="M187.727,8.239c-.926.345-1.789,3.364-.122,4.455,3.771,2.472,10.008,2.251,14.152,1.3l.082-.926c-2.258-1.668-9.291-5.013-12.894-5.013a3.515,3.515,0,0,0-1.217.182" transform="translate(-186.66 -8.057)" fill="none"/>
    </clipPath>
    <linearGradient id="linear-gradient" x1="-17.067" y1="24.357" x2="-16.975" y2="24.357" gradientUnits="objectBoundingBox">
      <stop offset="0" stop-color="#d46d17"/>
      <stop offset="1" stop-color="#ff9d00"/>
    </linearGradient>
    <clipPath id="clip-path-15">
      <path id="Path_2248" data-name="Path 2248" d="M201.074,13.257l.171.452a28.986,28.986,0,0,0,11.308-1.5c1.248-.466,3.192-1.255,2.66-2.783-.324-.92-1.217-1.956-1.669-2.01a2.7,2.7,0,0,0-.315-.017c-2.955,0-9.883,4.022-12.155,5.855" transform="translate(-201.074 -7.402)" fill="none"/>
    </clipPath>
    <linearGradient id="linear-gradient-2" x1="-19.978" y1="26.966" x2="-19.878" y2="26.966" xlink:href="#linear-gradient"/>
    <clipPath id="clip-path-16">
      <path id="Path_2255" data-name="Path 2255" d="M199.352,9.908a14.331,14.331,0,0,0-2.134,1.348c-.875.682-.9,1-.07,1.711a4.614,4.614,0,0,0,2.4.883,9.78,9.78,0,0,0,2.879-.086c1.532-.275,1.679-1.095,1.041-1.8a10.455,10.455,0,0,0-2.934-2.079,1.329,1.329,0,0,0-1.184.019" transform="translate(-196.543 -9.759)" fill="none"/>
    </clipPath>
    <radialGradient id="radial-gradient-14" cx="0.368" cy="-0.565" r="1.867" xlink:href="#radial-gradient-12"/>
  </defs>
  <g id="Group_2219" data-name="Group 2219" transform="translate(0.504 23.359)">
    <g id="Group_2218" data-name="Group 2218" clip-path="url(#clip-path)">
      <rect id="Rectangle_478" data-name="Rectangle 478" width="17.579" height="34.593" fill="url(#radial-gradient)"/>
    </g>
  </g>
  <g id="Group_2221" data-name="Group 2221" transform="translate(18.084 23.359)">
    <g id="Group_2220" data-name="Group 2220" clip-path="url(#clip-path-2)">
      <rect id="Rectangle_479" data-name="Rectangle 479" width="32.099" height="34.593" fill="url(#radial-gradient-2)"/>
    </g>
  </g>
  <g id="Group_2245" data-name="Group 2245" transform="translate(0 15.438)">
    <g id="Group_2244" data-name="Group 2244" clip-path="url(#clip-path-3)">
      <rect id="Rectangle_489" data-name="Rectangle 489" width="17.861" height="18.837" transform="translate(0)" fill="url(#radial-gradient-3)"/>
    </g>
  </g>
  <g id="Group_2247" data-name="Group 2247" transform="translate(17.86 19.356)">
    <g id="Group_2246" data-name="Group 2246" clip-path="url(#clip-path-4)">
      <rect id="Rectangle_490" data-name="Rectangle 490" width="32.832" height="14.919" transform="translate(0)" fill="url(#radial-gradient-4)"/>
    </g>
  </g>
  <g id="Group_2249" data-name="Group 2249" transform="translate(0 10.413)">
    <g id="Group_2248" data-name="Group 2248" clip-path="url(#clip-path-5)">
      <rect id="Rectangle_491" data-name="Rectangle 491" width="50.692" height="14.664" transform="translate(0 0)" fill="url(#radial-gradient-5)"/>
    </g>
  </g>
  <g id="Group_2268" data-name="Group 2268" transform="translate(31.185 21.465)">
    <g id="Group_2267" data-name="Group 2267" clip-path="url(#clip-path-6)">
      <rect id="Rectangle_499" data-name="Rectangle 499" width="7.402" height="33.641" transform="translate(0 0)" fill="url(#radial-gradient-6)"/>
    </g>
  </g>
  <g id="Group_2270" data-name="Group 2270" transform="translate(5.895 18.618)">
    <g id="Group_2269" data-name="Group 2269" clip-path="url(#clip-path-7)">
      <rect id="Rectangle_500" data-name="Rectangle 500" width="6.454" height="35.491" transform="translate(0 0)" fill="url(#radial-gradient-7)"/>
    </g>
  </g>
  <g id="Group_2272" data-name="Group 2272" transform="translate(13.68 12.265)">
    <g id="Group_2271" data-name="Group 2271" clip-path="url(#clip-path-8)">
      <rect id="Rectangle_501" data-name="Rectangle 501" width="24.907" height="10.358" transform="translate(0 0)" fill="url(#radial-gradient-8)"/>
    </g>
  </g>
  <g id="Group_2281" data-name="Group 2281" transform="translate(5.895 13.361)">
    <g id="Group_2280" data-name="Group 2280" clip-path="url(#clip-path-9)">
      <rect id="Rectangle_505" data-name="Rectangle 505" width="38.209" height="8.425" fill="url(#radial-gradient-9)"/>
    </g>
  </g>
  <g id="Group_2317" data-name="Group 2317" transform="translate(23.169 1.162)">
    <g id="Group_2316" data-name="Group 2316" clip-path="url(#clip-path-10)">
      <rect id="Rectangle_519" data-name="Rectangle 519" width="11.613" height="14.215" transform="translate(-0.163 0)" fill="url(#radial-gradient-10)"/>
    </g>
  </g>
  <g id="Group_2331" data-name="Group 2331" transform="translate(15.216 0)">
    <g id="Group_2330" data-name="Group 2330" clip-path="url(#clip-path-11)">
      <rect id="Rectangle_525" data-name="Rectangle 525" width="10.638" height="15.858" transform="translate(0)" fill="url(#radial-gradient-11)"/>
    </g>
  </g>
  <g id="Group_2345" data-name="Group 2345" transform="translate(6.59 6.02)">
    <g id="Group_2344" data-name="Group 2344" clip-path="url(#clip-path-12)">
      <rect id="Rectangle_531" data-name="Rectangle 531" width="19.139" height="13.219" transform="translate(-0.886 0)" fill="url(#radial-gradient-12)"/>
    </g>
  </g>
  <g id="Group_2347" data-name="Group 2347" transform="translate(25.87 5.44)">
    <g id="Group_2346" data-name="Group 2346" clip-path="url(#clip-path-13)">
      <rect id="Rectangle_532" data-name="Rectangle 532" width="17.135" height="12.26" transform="translate(0 0)" fill="url(#radial-gradient-13)"/>
    </g>
  </g>
  <g id="Group_2349" data-name="Group 2349" transform="translate(7.346 11.744)">
    <g id="Group_2348" data-name="Group 2348" clip-path="url(#clip-path-14)">
      <rect id="Rectangle_533" data-name="Rectangle 533" width="15.9" height="7.109" transform="translate(-0.722 0)" fill="url(#linear-gradient)"/>
    </g>
  </g>
  <g id="Group_2358" data-name="Group 2358" transform="translate(28.356 10.789)">
    <g id="Group_2357" data-name="Group 2357" clip-path="url(#clip-path-15)">
      <rect id="Rectangle_537" data-name="Rectangle 537" width="14.671" height="6.457" transform="translate(0 0)" fill="url(#linear-gradient-2)"/>
    </g>
  </g>
  <g id="Group_2387" data-name="Group 2387" transform="translate(21.752 14.225)">
    <g id="Group_2386" data-name="Group 2386" clip-path="url(#clip-path-16)">
      <rect id="Rectangle_549" data-name="Rectangle 549" width="7.79" height="4.213" transform="translate(-0.225 0)" fill="url(#radial-gradient-14)"/>
    </g>
  </g>
</svg>
