<svg xmlns="http://www.w3.org/2000/svg" xmlns:xlink="http://www.w3.org/1999/xlink" width="176" height="73.138" viewBox="0 0 176 73.138"><defs><style>.a{fill:#fbca00;}.b{fill:#333;}.c{fill:#6d29ef;}.d{fill:#fff;}.e{opacity:0.5;mix-blend-mode:multiply;isolation:isolate;}.f{fill:url(#a);}</style><linearGradient id="a" x1="0.286" y1="0.145" x2="0.5" y2="0.932" gradientUnits="objectBoundingBox"><stop offset="0" stop-color="#dbdbdb"/><stop offset="0.502" stop-color="#fff"/><stop offset="1" stop-color="#d5d5d5"/></linearGradient></defs><g transform="translate(0 30.985)"><path class="a" d="M174.574,358.176h-4.242l-2.307,13.1-.424,2.234,167.328.075-3.958,22.65H158.928l4.533-24.96,2.307-13.1h-4.242l.67-3.771h13.048Z" transform="translate(-158.928 -354.107)"/><path class="a" d="M253.732,362.552l.645-3.622c.4-2.233,1.091-6.326,7.293-6.326,3.771,0,6.7,1.513,6.7,5.358a13.156,13.156,0,0,1-.223,2.183l-.645,3.622c-.422,2.431-1.216,6.3-7.318,6.3-3.8,0-6.648-1.513-6.648-5.432A12.31,12.31,0,0,1,253.732,362.552Zm9.228.719.62-3.423a7.587,7.587,0,0,0,.149-1.389c0-1.538-.769-2.108-2.084-2.108-2.158,0-2.456,1.538-2.729,3.076l-.62,3.423a7.6,7.6,0,0,0-.149,1.389c0,1.513.769,2.084,2.108,2.084C262.439,366.323,262.688,364.76,262.96,363.272Z" transform="translate(-237.888 -352.605)"/><path class="a" d="M363.289,359.093c0,4.341-2.481,6.673-7.318,6.673h-2.406l-.967,5.507h-4.564L351.01,354.4h6.723C361.776,354.4,363.289,355.695,363.289,359.093Zm-4.589.5c0-1.191-.5-1.612-1.91-1.612h-1.836l-.744,4.217h1.836A2.391,2.391,0,0,0,358.7,359.59Z" transform="translate(-316.759 -354.107)"/></g><g transform="translate(5.125 53.401)"><path class="b" d="M205.17,492.834c0,4.341-2.481,6.673-7.318,6.673h-2.406l-.967,5.507h-4.564l2.977-16.868h6.722C203.657,488.146,205.17,489.436,205.17,492.834Zm-4.589.5c0-1.191-.5-1.612-1.91-1.612h-1.836l-.744,4.217h1.836A2.391,2.391,0,0,0,200.581,493.331Z" transform="translate(-189.914 -488.146)"/><path class="b" d="M277.382,502.013h-4.515l-1.364,3h-4.639l8.285-16.868h4.887l2.332,16.868h-4.713Zm-3-3.522h2.729l-.4-5.482Z" transform="translate(-254.138 -488.146)"/><path class="b" d="M373.341,488.146h4.564l-2.977,16.868h-4.564Z" transform="translate(-340.521 -488.146)"/><path class="b" d="M432.42,494.992l-.62,3.473c-.819,4.639-3.1,6.549-7.69,6.549h-6.648l2.977-16.868h6.425C431.453,488.146,433.239,490.379,432.42,494.992Zm-6.6-3.274h-1.439l-1.736,9.724h1.216c2.084,0,3.026-.918,3.448-3.374l.571-3.274C428.327,492.338,427.906,491.718,425.822,491.718Z" transform="translate(-379.83 -488.146)"/></g><path class="c" d="M645.106,492.793H535.312l3.959-22.728H649.065Z" transform="translate(-473.065 -419.654)"/><g transform="translate(67.544 53.043)"><g transform="translate(0)"><path class="d" d="M567.34,498.835a6.858,6.858,0,0,1,.074-.967h4.49a4.843,4.843,0,0,0-.049.571c0,1.116.719,1.587,1.885,1.587,1.265,0,1.885-.571,1.885-1.513,0-1.339-1.215-1.662-2.679-2.208-2.9-1.067-4.167-2.034-4.167-4.639,0-3.547,2.232-5.681,6.549-5.681,3.175,0,5.978,1.191,5.978,4.589a4.548,4.548,0,0,1-.05.769h-4.465a4.088,4.088,0,0,0,.05-.521c0-.967-.546-1.439-1.563-1.439-1.141,0-1.761.57-1.761,1.513,0,1.29,1.216,1.613,2.555,2.084,3.026,1.067,4.292,2.109,4.292,4.788,0,3.621-2.158,5.656-6.7,5.656C570.242,503.424,567.34,502.233,567.34,498.835Z" transform="translate(-567.34 -485.985)"/><path class="d" d="M658.413,498.227l1.86-10.592h4.614L663,498.475a5.762,5.762,0,0,0-.1.918c0,1.116.571,1.662,1.811,1.662,1.389,0,1.935-.546,2.232-2.232l1.96-11.188H673.3l-2.034,11.708c-.694,3.944-2.555,5.457-6.7,5.457-3.5,0-6.326-1.29-6.326-4.837A10.284,10.284,0,0,1,658.413,498.227Z" transform="translate(-643.206 -487.362)"/><path class="d" d="M760.949,498.2l2.332,6.3h-4.887l-1.786-5.879h-1.414l-1.042,5.879h-4.564l2.977-16.868h6.946c3.87,0,5.309,1.265,5.309,4.564C764.819,495.325,763.529,497.359,760.949,498.2Zm-5.135-3.15h2.009a2.172,2.172,0,0,0,2.406-2.406c0-1.067-.422-1.439-1.737-1.439h-1.984Z" transform="translate(-719.448 -487.362)"/><path class="d" d="M865.872,487.635,857.859,504.5h-4.812l-2.059-16.868h4.688l.868,10.964,4.738-10.964Z" transform="translate(-804.078 -487.362)"/><path class="d" d="M939.632,491.331l-.5,2.828h6l-.62,3.572h-6.028l-.546,3.076h7.516l-.645,3.7H932.736l2.977-16.868h11.833l-.67,3.7Z" transform="translate(-872.306 -487.362)"/><path class="d" d="M1033.248,497.632l-1.216,6.871h-4.54l1.265-7.119-3.473-9.749h4.937l1.588,5.259,3.423-5.259h5.061Z" transform="translate(-949.549 -487.362)"/><path class="d" d="M1101.786,498.835a6.875,6.875,0,0,1,.074-.967h4.49a4.819,4.819,0,0,0-.05.571c0,1.116.719,1.587,1.885,1.587,1.265,0,1.885-.571,1.885-1.513,0-1.339-1.216-1.662-2.679-2.208-2.9-1.067-4.168-2.034-4.168-4.639,0-3.547,2.233-5.681,6.549-5.681,3.175,0,5.978,1.191,5.978,4.589a4.57,4.57,0,0,1-.049.769h-4.465a4.086,4.086,0,0,0,.049-.521c0-.967-.546-1.439-1.563-1.439-1.141,0-1.761.57-1.761,1.513,0,1.29,1.215,1.613,2.555,2.084,3.026,1.067,4.291,2.109,4.291,4.788,0,3.621-2.158,5.656-6.7,5.656C1104.688,503.424,1101.786,502.233,1101.786,498.835Z" transform="translate(-1013.398 -485.985)"/></g></g><path class="a" d="M390.374,213.91l13.908-11.293,16.392,7.232-6.443-16.717,11.943-13.354-17.89.962-9.01-15.485-4.614,17.312-17.512,3.784,15.038,9.738Z" transform="translate(-341.059 -165.253)"/><path class="a" d="M685.924,381.682l3.482-2.129,3.483,2.129-.949-3.97,3.1-2.654-4.069-.324-1.566-3.77-1.566,3.77-4.069.324,3.1,2.654Z" transform="translate(-596.972 -336.943)"/><path class="a" d="M795.315,381.682l3.483-2.129,3.483,2.129-.949-3.97,3.1-2.654-4.069-.324-1.566-3.77-1.566,3.77-4.069.324,3.1,2.654Z" transform="translate(-688.272 -336.943)"/><path class="a" d="M904.705,381.682l3.483-2.129,3.483,2.129-.949-3.97,3.1-2.654-4.069-.324-1.566-3.77-1.566,3.77-4.069.324,3.1,2.654Z" transform="translate(-779.571 -336.943)"/><path class="a" d="M1014.1,381.682l3.483-2.129,3.483,2.129-.949-3.97,3.1-2.654-4.069-.324-1.566-3.77-1.566,3.77-4.069.324,3.1,2.654Z" transform="translate(-870.871 -336.943)"/><g transform="matrix(1, -0.017, 0.017, 1, 49.862, 11.484)"><g class="e" transform="translate(0.496 0.662)"><path d="M472.934,245.278l-.344,4.742a7.924,7.924,0,0,1,4.128-1.718c4.611-.735,7.874,1.068,8.748,6.553.976,6.121-1.712,10.992-9.582,12.247-6.559,1.045-10.3-1.456-10.864-6.787l6.956-1.109c.31,1.947,1.809,2.4,3.359,2.154,2.663-.424,3.327-2.65,3-4.717-.317-1.988-1.417-2.75-3.483-2.42a3.719,3.719,0,0,0-2.758,1.622l-6.28,1,1.321-16.514,17.37-2.769-.121,5.889Z" transform="translate(-465.019 -237.565)"/></g><g transform="translate(0 0)"><path class="f" d="M469.934,241.278l-.344,4.742a7.924,7.924,0,0,1,4.128-1.718c4.611-.735,7.874,1.068,8.748,6.553.976,6.121-1.712,10.992-9.582,12.247-6.559,1.045-10.3-1.456-10.864-6.787l6.956-1.109c.31,1.947,1.809,2.4,3.359,2.154,2.663-.424,3.328-2.65,3-4.717-.317-1.988-1.417-2.75-3.483-2.42a3.718,3.718,0,0,0-2.758,1.622l-6.28,1,1.321-16.514,17.37-2.769-.121,5.889Z" transform="translate(-462.019 -233.565)"/></g></g><path class="a" d="M1123.486,381.682l3.483-2.129,3.483,2.129-.949-3.97,3.1-2.654-4.069-.324-1.566-3.77-1.566,3.77-4.069.324,3.1,2.654Z" transform="translate(-962.17 -336.943)"/></svg>