<svg xmlns="http://www.w3.org/2000/svg" xmlns:xlink="http://www.w3.org/1999/xlink" width="394" height="160.144" viewBox="0 0 394 160.144"><defs><style>.a,.c,.d,.e{fill:none;}.b{fill:#f7f7f7;}.c,.d,.e{stroke:#e5e5e5;stroke-linecap:round;stroke-linejoin:round;}.c{stroke-width:0.75px;stroke-dasharray:3 3;}.d{stroke-width:0.914px;stroke-dasharray:3.656 3.656;opacity:0.552;}.e{stroke-width:0.683px;stroke-dasharray:2.732 2.732;}.f{fill:#aaa;}.g{fill:#424444;opacity:0.208;}.g,.p,.s{mix-blend-mode:multiply;}.g,.i,.p,.s{isolation:isolate;}.h{fill:#6d29ef;}.i{opacity:0.331;mix-blend-mode:screen;fill:url(#a);}.j{fill:url(#c);}.k,.p{fill:#fbca00;}.l{fill:#7bb728;}.m{fill:#fff;}.n{fill:#e5e5e5;}.o{fill:#f9870b;}.q{fill:#ffef1a;}.r{clip-path:url(#d);}.s{fill:#f7a000;}</style><linearGradient id="a" x1="1.129" y1="-0.18" x2="0.55" y2="0.446" gradientUnits="objectBoundingBox"><stop offset="0.011" stop-color="#00adee"/><stop offset="0.042" stop-color="#06a5eb"/><stop offset="0.252" stop-color="#3174db"/><stop offset="0.452" stop-color="#524dcf"/><stop offset="0.634" stop-color="#6a31c6"/><stop offset="0.794" stop-color="#7820c0"/><stop offset="0.914" stop-color="#7e1bbf"/><stop offset="1" stop-color="#8019be"/></linearGradient><linearGradient id="c" y1="0.5" x2="1" y2="0.5" gradientUnits="objectBoundingBox"><stop offset="0.041" stop-color="#006838"/><stop offset="0.147" stop-color="#237239"/><stop offset="0.384" stop-color="#6f873b"/><stop offset="0.597" stop-color="#aa983d"/><stop offset="0.776" stop-color="#d5a43e"/><stop offset="0.916" stop-color="#f0ac3f"/><stop offset="0.999" stop-color="#faaf40"/></linearGradient><clipPath id="d"><path class="a" d="M368.542,259.3l15.544-9.042,3.537-12.5L359.9,248.436Z" transform="translate(-359.899 -237.75)"/></clipPath></defs><g transform="translate(-140 -1579.856)"><ellipse class="b" cx="197" cy="43.5" rx="197" ry="43.5" transform="translate(140 1653)"/><g transform="translate(82.23 1399.856)"><ellipse class="c" cx="80.992" cy="41.03" rx="80.992" ry="41.03" transform="translate(231.925 229.402)"/><ellipse class="d" cx="98.711" cy="50.007" rx="98.711" ry="50.007" transform="translate(214.206 220.426)"/><ellipse class="e" cx="65.758" cy="29.368" rx="65.758" ry="29.368" transform="translate(247.159 241.065)"/><path class="f" d="M409.14,257.985a.128.128,0,0,0,0-.018v-4.744h-4.669v1.3l-50.094-26.313a4.512,4.512,0,0,0-4.364.092L243.851,289.906v-1.4h-3.919v4.628h.007a1.691,1.691,0,0,0,.91,1.551L294.7,322.97a4.512,4.512,0,0,0,4.364-.092l109.228-63.385a1.682,1.682,0,0,0,.842-1.409h.01Z" transform="translate(-15.093 -5.819)"/><path class="g" d="M293.228,333.435l-53.85-28.285a1.714,1.714,0,0,1-.063-3l109.229-63.386a4.513,4.513,0,0,1,4.363-.091l53.85,28.285a1.714,1.714,0,0,1,.063,3L297.591,333.343A4.511,4.511,0,0,1,293.228,333.435Z" transform="translate(-14.913 -7.096)"/><path class="h" d="M408.293,254.03,303.646,314.751l-4.583,2.66a4.511,4.511,0,0,1-4.364.1L240.852,289.22a1.719,1.719,0,0,1-.07-3l109.23-63.382a4.487,4.487,0,0,1,4.364-.088l42.433,22.283,11.414,6A1.719,1.719,0,0,1,408.293,254.03Z" transform="translate(-15.093 -5.152)"/><path class="i" d="M353.084,266.786l-59.771,34.682-2.618,1.52a2.576,2.576,0,0,1-2.493.054l-30.756-16.158a.982.982,0,0,1-.039-1.715l62.389-36.2a2.564,2.564,0,0,1,2.493-.05l24.237,12.727,6.519,3.425A.982.982,0,0,1,353.084,266.786Z" transform="translate(-17.166 -8.373)"/><path class="i" d="M394.084,263.119,334.314,297.8l-2.618,1.52a2.578,2.578,0,0,1-2.493.055l-30.756-16.158a.982.982,0,0,1-.039-1.716L360.8,245.3a2.564,2.564,0,0,1,2.493-.05l24.237,12.728,6.519,3.425A.981.981,0,0,1,394.084,263.119Z" transform="translate(-22.169 -7.925)"/><path class="g" d="M343.081,328.836l-69.245-36.318a1.4,1.4,0,0,1-.053-2.441l45.4-26.369a4.384,4.384,0,0,1,4.238-.092l69.244,36.319a1.394,1.394,0,0,1,.054,2.44l-45.4,26.37A4.383,4.383,0,0,1,343.081,328.836Z" transform="translate(-19.139 -10.141)"/><path class="j" d="M342.289,323.169l-69.245-36.318a1.394,1.394,0,0,1-.053-2.44l45.4-26.37a4.384,4.384,0,0,1,4.238-.091l69.245,36.318a1.4,1.4,0,0,1,.053,2.441l-45.4,26.369A4.382,4.382,0,0,1,342.289,323.169Z" transform="translate(-19.042 -9.45)"/><path class="k" d="M342.247,321.669,273,285.351a1.394,1.394,0,0,1-.053-2.44l45.4-26.37a4.383,4.383,0,0,1,4.237-.091l69.245,36.318a1.394,1.394,0,0,1,.053,2.441l-45.4,26.369A4.382,4.382,0,0,1,342.247,321.669Z" transform="translate(-19.037 -9.267)"/><path class="l" d="M308.572,282.873l-10-5.246a.2.2,0,0,1-.008-.352l6.556-3.809a.636.636,0,0,1,.613-.013l10,5.245a.2.2,0,0,1,.008.353l-6.557,3.808A.632.632,0,0,1,308.572,282.873Z" transform="translate(-22.235 -11.394)"/><path class="m" d="M346.931,277.128l-23.387-11.6a1.575,1.575,0,0,1-.091-2.773l0,0a1.572,1.572,0,0,1,1.491-.049l23.386,11.6a1.575,1.575,0,0,1,.091,2.773l0,0A1.577,1.577,0,0,1,346.931,277.128Z" transform="translate(-25.188 -10.071)"/><path class="m" d="M359.829,291.413,316.218,269.86a1.575,1.575,0,0,1-.093-2.774h0a1.577,1.577,0,0,1,1.489-.05l43.61,21.553a1.574,1.574,0,0,1,.093,2.774h0A1.572,1.572,0,0,1,359.829,291.413Z" transform="translate(-24.294 -10.6)"/><path class="m" d="M298.067,293.411l-11.932-5.794a1.443,1.443,0,0,1-.095-2.546l.259-.151a1.445,1.445,0,0,1,1.356-.05l11.932,5.794a1.443,1.443,0,0,1,.095,2.546l-.259.15A1.443,1.443,0,0,1,298.067,293.411Z" transform="translate(-20.631 -12.778)"/><path class="m" d="M317.817,302.786l-11.932-5.794a1.443,1.443,0,0,1-.095-2.546l.259-.151a1.445,1.445,0,0,1,1.356-.05l11.932,5.794a1.443,1.443,0,0,1,.095,2.546l-.259.15A1.443,1.443,0,0,1,317.817,302.786Z" transform="translate(-23.041 -13.922)"/><path class="m" d="M337.567,312.286l-11.932-5.794a1.443,1.443,0,0,1-.095-2.546l.259-.151a1.446,1.446,0,0,1,1.356-.05l11.932,5.794a1.443,1.443,0,0,1,.095,2.546l-.259.15A1.443,1.443,0,0,1,337.567,312.286Z" transform="translate(-25.451 -15.081)"/><path class="n" d="M364.732,222.835a4.487,4.487,0,0,1,4.364-.088l53.847,28.28a1.719,1.719,0,0,1,.07,3l-3.635,2.107-58.8-30.889Z" transform="translate(-29.813 -5.152)"/><path class="n" d="M299.06,326.012a4.487,4.487,0,0,1-4.364.088l-53.847-28.28a1.719,1.719,0,0,1-.07-3l3.635-2.107,58.8,30.889Z" transform="translate(-15.093 -13.752)"/><g transform="translate(156.563 285.836)"><g transform="translate(0 0)"><path class="o" d="M373.064,214.645c-6.394,6.109-15.433,7.192-20.665,1.548-3.531-3.81-4.074-9.067-1.975-14.233a18.924,18.924,0,0,1,4.463-6.34c6.394-6.108,15.645-6.8,20.665-1.548S379.458,208.537,373.064,214.645Z" transform="translate(-349.167 -190.544)"/><path class="k" d="M374.442,214.645c-6.394,6.109-15.433,7.192-20.665,1.548s-3.905-14.464,2.489-20.573,15.646-6.8,20.665-1.548S380.836,208.537,374.442,214.645Z" transform="translate(-349.063 -190.544)"/><path class="p" d="M362.224,216.571a8.527,8.527,0,0,1-6.4-2.7c-3.918-4.228-2.9-11.208,2.357-16.236a14.525,14.525,0,0,1,9.808-4.218,8.788,8.788,0,0,1,6.484,2.572c3.833,4.013,2.761,11.28-2.39,16.2A14.73,14.73,0,0,1,362.224,216.571Z" transform="translate(-348.844 -190.326)"/></g><g transform="translate(11.467 7.379)"><path class="q" d="M368.763,206.688c-.044,1.964-1.5,3.523-3.955,4.317l-.043,1.893-1.21.274.042-1.862a8.729,8.729,0,0,1-3.768.07l.055-2.449a8.131,8.131,0,0,0,1.833.289,10.1,10.1,0,0,0,1.93-.081l.066-2.869-.585-.113a4.9,4.9,0,0,1-2.454-1,2.5,2.5,0,0,1-.681-1.934,3.623,3.623,0,0,1,1.054-2.44,6.633,6.633,0,0,1,2.827-1.686l.032-1.42,1.21-.275-.031,1.39a8.866,8.866,0,0,1,3.651.009l-.886,2.361a7.985,7.985,0,0,0-2.817-.076l-.062,2.726a10.168,10.168,0,0,1,2.433.655A2.147,2.147,0,0,1,368.763,206.688Zm-6.1-4.067c-.013.545.325.766,1.113.954l.049-2.18C363.063,201.679,362.672,202.1,362.66,202.62Zm3.434,4.807c.012-.526-.374-.744-1.183-.939l-.052,2.3C365.669,208.475,366.08,208.014,366.094,207.427Z" transform="translate(-359.829 -197.405)"/></g></g><g transform="translate(330.168 230.704)"><g class="r"><g transform="translate(5.759 5.53)"><path class="o" d="M380.314,258.024c-3.707,3.542-8.948,4.17-11.982.9s-2.265-8.387,1.443-11.929,9.072-3.944,11.983-.9S384.022,254.482,380.314,258.024Z" transform="translate(-366.458 -244.049)"/><path class="k" d="M381.293,258.024c-3.707,3.542-8.948,4.17-11.983.9s-2.264-8.387,1.443-11.929,9.072-3.944,11.983-.9S385,254.482,381.293,258.024Z" transform="translate(-366.577 -244.049)"/><path class="s" d="M374.588,259.516a4.943,4.943,0,0,1-3.71-1.564c-2.272-2.452-1.684-6.5,1.367-9.414a8.422,8.422,0,0,1,5.688-2.446,5.1,5.1,0,0,1,3.76,1.491c2.222,2.327,1.6,6.54-1.385,9.394A8.543,8.543,0,0,1,374.588,259.516Z" transform="translate(-366.829 -244.298)"/><g transform="translate(7.186 4.497)"><path class="q" d="M379.824,254.553a2.838,2.838,0,0,1-2.293,2.5l-.025,1.1-.7.159.025-1.08a5.053,5.053,0,0,1-2.186.04l.033-1.42a4.734,4.734,0,0,0,1.062.169,5.84,5.84,0,0,0,1.119-.047l.038-1.664-.339-.066a2.837,2.837,0,0,1-1.423-.578,1.441,1.441,0,0,1-.394-1.121,2.094,2.094,0,0,1,.611-1.414,3.834,3.834,0,0,1,1.639-.978l.018-.824.7-.16-.018.805a5.171,5.171,0,0,1,2.117.005l-.514,1.37a4.642,4.642,0,0,0-1.634-.045l-.035,1.581a5.908,5.908,0,0,1,1.41.379A1.246,1.246,0,0,1,379.824,254.553Zm-3.539-2.357c-.007.316.189.443.645.553l.029-1.264C376.518,251.65,376.292,251.891,376.285,252.2Zm1.991,2.787c.007-.3-.217-.431-.686-.544l-.031,1.336C378.029,255.59,378.268,255.322,378.276,254.982Z" transform="translate(-374.643 -249.171)"/></g></g></g></g><g transform="translate(259.067 180)"><circle class="m" cx="0.658" cy="0.658" r="0.658" transform="translate(108.943 36.656)"/><circle class="m" cx="0.658" cy="0.658" r="0.658" transform="translate(133.381 48.801)"/><circle class="m" cx="0.658" cy="0.658" r="0.658" transform="translate(101.627 23.632)"/><circle class="m" cx="0.658" cy="0.658" r="0.658" transform="translate(28.096 42.363)"/><circle class="m" cx="0.658" cy="0.658" r="0.658" transform="translate(0 24.218)"/><circle class="m" cx="0.658" cy="0.658" r="0.658" transform="translate(86.555 34.9)"/><circle class="m" cx="0.658" cy="0.658" r="0.658" transform="translate(30.144 24.51)"/><circle class="m" cx="0.658" cy="0.658" r="0.658" transform="translate(39.363 33.363)"/><circle class="m" cx="0.658" cy="0.658" r="0.658" transform="translate(112.968 43.826)"/><circle class="m" cx="0.658" cy="0.658" r="0.658" transform="translate(140.551 77.921)"/><circle class="m" cx="0.658" cy="0.658" r="0.658" transform="translate(59.557)"/><circle class="m" cx="0.658" cy="0.658" r="0.658" transform="translate(144.063 100.749)"/><circle class="m" cx="0.658" cy="0.658" r="0.658" transform="translate(123.503 96.725)"/></g><g transform="translate(116.563 266.836)"><g transform="translate(0.027 0)"><path class="o" d="M362.873,204.355c-3.664,3.5-8.844,4.121-11.843.887-2.023-2.183-2.335-5.2-1.132-8.156a10.845,10.845,0,0,1,2.558-3.633c3.664-3.5,8.966-3.9,11.843-.887S366.537,200.855,362.873,204.355Z" transform="translate(-349.194 -190.544)"/><path class="k" d="M364.24,204.355c-3.664,3.5-8.844,4.121-11.842.887s-2.238-8.289,1.426-11.79,8.966-3.9,11.842-.887S367.9,200.855,364.24,204.355Z" transform="translate(-349.711 -190.544)"/><path class="p" d="M358.477,206.687a4.887,4.887,0,0,1-3.666-1.546c-2.245-2.423-1.665-6.423,1.351-9.3a8.324,8.324,0,0,1,5.621-2.417,5.036,5.036,0,0,1,3.716,1.474c2.2,2.3,1.582,6.464-1.369,9.284A8.441,8.441,0,0,1,358.477,206.687Z" transform="translate(-350.824 -191.647)"/></g><g transform="translate(6.582 4.229)"><path class="q" d="M364.949,202.724a2.805,2.805,0,0,1-2.266,2.474l-.025,1.085-.693.157.024-1.067a5,5,0,0,1-2.16.04l.031-1.4a4.661,4.661,0,0,0,1.05.166,5.788,5.788,0,0,0,1.106-.046l.038-1.644-.335-.065a2.807,2.807,0,0,1-1.406-.571,1.43,1.43,0,0,1-.39-1.108,2.076,2.076,0,0,1,.6-1.4,3.8,3.8,0,0,1,1.62-.966l.018-.814.693-.158-.018.8a5.081,5.081,0,0,1,2.092,0l-.508,1.353a4.575,4.575,0,0,0-1.614-.044l-.036,1.562a5.825,5.825,0,0,1,1.394.375A1.231,1.231,0,0,1,364.949,202.724Zm-3.5-2.331c-.007.312.186.439.638.547l.028-1.249C361.682,199.854,361.458,200.093,361.451,200.394Zm1.968,2.755c.007-.3-.214-.426-.678-.538l-.03,1.321C363.176,203.749,363.411,203.484,363.419,203.148Z" transform="translate(-359.829 -197.405)"/></g></g><g transform="translate(189.055 240.836)"><g transform="translate(0.027 0)"><path class="o" d="M368.833,210.372c-5.26,5.026-12.7,5.917-17,1.273-2.905-3.134-3.352-7.459-1.625-11.71a15.569,15.569,0,0,1,3.672-5.216c5.26-5.025,12.872-5.6,17-1.273S374.093,205.347,368.833,210.372Z" transform="translate(-349.194 -190.544)"/><path class="k" d="M370.206,210.372c-5.26,5.026-12.7,5.917-17,1.273s-3.213-11.9,2.048-16.926,12.873-5.6,17-1.273S375.466,205.347,370.206,210.372Z" transform="translate(-349.348 -190.544)"/><path class="p" d="M360.668,212.467a7.016,7.016,0,0,1-5.264-2.219c-3.223-3.478-2.39-9.221,1.94-13.358a11.951,11.951,0,0,1,8.07-3.47,7.23,7.23,0,0,1,5.335,2.116c3.154,3.3,2.271,9.28-1.966,13.328A12.119,12.119,0,0,1,360.668,212.467Z" transform="translate(-349.682 -190.875)"/></g><g transform="translate(9.439 6.071)"><path class="q" d="M367.179,205.042c-.036,1.616-1.233,2.9-3.254,3.552l-.035,1.557-1,.226.035-1.532a7.182,7.182,0,0,1-3.1.058l.045-2.015a6.689,6.689,0,0,0,1.508.238,8.31,8.31,0,0,0,1.588-.066l.054-2.361-.481-.093a4.03,4.03,0,0,1-2.019-.82,2.053,2.053,0,0,1-.56-1.591,2.981,2.981,0,0,1,.867-2.008,5.457,5.457,0,0,1,2.326-1.387l.027-1.168,1-.227-.026,1.143a7.294,7.294,0,0,1,3,.007l-.729,1.942a6.569,6.569,0,0,0-2.317-.063l-.051,2.243a8.365,8.365,0,0,1,2,.539A1.767,1.767,0,0,1,367.179,205.042Zm-5.021-3.346c-.011.449.267.63.916.785l.041-1.794C362.49,200.921,362.168,201.264,362.158,201.7Zm2.825,3.955c.01-.433-.308-.612-.973-.772l-.042,1.9C364.634,206.513,364.972,206.133,364.983,205.651Z" transform="translate(-359.829 -197.405)"/></g></g><g transform="translate(215.179 299.836)"><g transform="translate(0.027 0)"><path class="o" d="M363.939,205.431c-3.95,3.773-9.533,4.442-12.765.956-2.181-2.353-2.517-5.6-1.22-8.792a11.69,11.69,0,0,1,2.757-3.916c3.95-3.773,9.664-4.2,12.765-.956S367.889,201.658,363.939,205.431Z" transform="translate(-349.194 -190.544)"/><path class="k" d="M365.307,205.431c-3.95,3.773-9.533,4.442-12.765.956s-2.412-8.935,1.537-12.708,9.665-4.2,12.765-.956S369.256,201.658,365.307,205.431Z" transform="translate(-349.646 -190.544)"/><path class="p" d="M358.869,207.721a5.267,5.267,0,0,1-3.952-1.666c-2.42-2.612-1.794-6.923,1.456-10.029a8.973,8.973,0,0,1,6.059-2.606,5.428,5.428,0,0,1,4.005,1.588c2.368,2.479,1.705,6.968-1.476,10.007A9.1,9.1,0,0,1,358.869,207.721Z" transform="translate(-350.62 -191.509)"/></g><g transform="translate(7.093 4.558)"><path class="q" d="M365.348,203.139c-.027,1.213-.926,2.176-2.443,2.667l-.027,1.169-.747.169.026-1.15a5.392,5.392,0,0,1-2.328.043l.034-1.513a5.024,5.024,0,0,0,1.132.179,6.239,6.239,0,0,0,1.193-.05l.041-1.772-.361-.07a3.026,3.026,0,0,1-1.516-.616A1.542,1.542,0,0,1,359.93,201a2.238,2.238,0,0,1,.651-1.507,4.1,4.1,0,0,1,1.747-1.042l.02-.877.747-.17-.019.858a5.477,5.477,0,0,1,2.255.005l-.547,1.458a4.932,4.932,0,0,0-1.74-.047l-.039,1.684a6.279,6.279,0,0,1,1.5.4A1.326,1.326,0,0,1,365.348,203.139Zm-3.77-2.513c-.008.337.2.473.688.589l.031-1.347C361.827,200.045,361.585,200.3,361.578,200.626Zm2.121,2.97c.007-.325-.231-.46-.731-.58l-.032,1.424C363.436,204.243,363.69,203.958,363.7,203.6Z" transform="translate(-359.829 -197.405)"/></g></g><g transform="translate(300.055 217.836)"><g transform="translate(0.027 0)"><path class="o" d="M368.833,210.372c-5.26,5.026-12.7,5.917-17,1.273-2.905-3.134-3.352-7.459-1.625-11.71a15.569,15.569,0,0,1,3.672-5.216c5.26-5.025,12.872-5.6,17-1.273S374.093,205.347,368.833,210.372Z" transform="translate(-349.194 -190.544)"/><path class="k" d="M370.206,210.372c-5.26,5.026-12.7,5.917-17,1.273s-3.213-11.9,2.048-16.926,12.873-5.6,17-1.273S375.466,205.347,370.206,210.372Z" transform="translate(-349.348 -190.544)"/><path class="p" d="M360.668,212.467a7.016,7.016,0,0,1-5.264-2.219c-3.223-3.478-2.39-9.221,1.94-13.358a11.951,11.951,0,0,1,8.07-3.47,7.23,7.23,0,0,1,5.335,2.116c3.154,3.3,2.271,9.28-1.966,13.328A12.119,12.119,0,0,1,360.668,212.467Z" transform="translate(-349.682 -190.875)"/></g><g transform="translate(9.439 6.071)"><path class="q" d="M367.179,205.042c-.036,1.616-1.233,2.9-3.254,3.552l-.035,1.557-1,.226.035-1.532a7.182,7.182,0,0,1-3.1.058l.045-2.015a6.689,6.689,0,0,0,1.508.238,8.31,8.31,0,0,0,1.588-.066l.054-2.361-.481-.093a4.03,4.03,0,0,1-2.019-.82,2.053,2.053,0,0,1-.56-1.591,2.981,2.981,0,0,1,.867-2.008,5.457,5.457,0,0,1,2.326-1.387l.027-1.168,1-.227-.026,1.143a7.294,7.294,0,0,1,3,.007l-.729,1.942a6.569,6.569,0,0,0-2.317-.063l-.051,2.243a8.365,8.365,0,0,1,2,.539A1.767,1.767,0,0,1,367.179,205.042Zm-5.021-3.346c-.011.449.267.63.916.785l.041-1.794C362.49,200.921,362.168,201.264,362.158,201.7Zm2.825,3.955c.01-.433-.308-.612-.973-.772l-.042,1.9C364.634,206.513,364.972,206.133,364.983,205.651Z" transform="translate(-359.829 -197.405)"/></g></g></g></g></svg>